<?xml version="1.0" encoding="UTF-8" standalone="no"?>
<!DOCTYPE svg PUBLIC "-//W3C//DTD SVG 1.1//EN" "http://www.w3.org/Graphics/SVG/1.1/DTD/svg11.dtd">
<svg width="30.00" height="30.00" viewBox="0.00 0.00 250.00 250.00" xmlns="http://www.w3.org/2000/svg" xmlns:xlink="http://www.w3.org/1999/xlink">
<g stroke-linecap="round" id="Layer_2">
<path d="M84.52,135.26 C84.51,135.02 84.38,134.39 84.14,133.70 C83.19,131.09 80.51,126.93 79.89,126.58 C79.35,127.24 79.10,127.84 79.28,128.95 C80.69,137.90 80.51,138.56 80.11,139.17 C78.86,139.69 76.46,138.78 73.14,136.30 C72.66,135.94 59.05,125.22 57.24,124.60 C56.91,125.49 57.13,126.35 58.25,127.85 C64.18,135.73 64.93,136.80 65.38,137.49 C65.38,137.49 53.21,122.71 53.21,122.71 C52.74,123.82 55.32,129.90 55.55,130.57 C55.63,130.82 55.62,130.93 55.51,130.90 C55.51,130.90 47.98,122.82 47.98,122.82 C47.98,122.82 47.66,124.51 47.66,124.51 C47.66,124.51 45.96,124.41 45.96,124.41 C45.96,124.41 48.79,126.88 48.79,126.88 C48.79,126.88 46.08,125.39 46.08,125.39 C46.32,125.68 55.61,131.85 57.83,134.86 C59.08,136.57 59.31,137.70 59.27,138.13 C57.83,138.28 55.41,136.07 53.81,133.93 C53.41,133.38 52.50,132.01 52.40,131.92 C52.40,131.92 52.09,135.41 52.09,135.41 C52.09,135.41 50.13,134.27 50.13,134.27 C49.79,134.39 48.82,136.52 48.29,137.63 C47.89,138.65 48.76,141.44 49.70,142.86 C49.94,143.20 53.30,146.65 54.36,148.87 C55.68,151.60 66.70,164.93 68.29,166.51 C70.25,168.41 82.31,173.69 86.64,174.25 C92.15,174.92 102.16,174.88 105.39,173.57 C110.63,171.41 119.02,166.38 123.18,163.31 C126.58,160.94 133.63,154.71 137.98,149.72 C139.65,147.87 142.66,145.69 144.96,144.38 C150.07,141.54 154.18,141.49 154.86,141.64 C155.29,142.20 156.61,159.72 155.75,163.50 C155.29,165.42 153.88,168.90 151.73,171.66 C149.37,174.64 131.39,191.02 125.24,194.77 C124.89,194.98 124.54,195.19 124.19,195.40 C124.77,195.31 129.64,195.71 132.02,194.90 C133.75,194.29 144.88,189.60 151.27,187.67 C155.74,186.30 165.12,182.59 169.16,179.81 C172.77,177.28 175.60,174.84 179.65,170.50 C182.71,167.18 186.53,161.56 187.23,159.95 C188.17,157.75 189.39,153.92 189.65,151.44 C189.91,148.65 188.26,135.60 187.05,129.40 C185.80,122.49 182.05,110.89 181.37,107.07 C180.83,103.94 180.87,98.75 181.10,95.80 C181.33,93.04 182.44,88.36 183.71,85.37 C184.70,83.08 188.67,77.79 190.11,75.92 C190.76,75.11 197.27,70.16 197.31,70.14 C199.79,68.54 203.80,67.84 205.42,67.83 C208.55,67.84 209.57,67.72 210.12,67.17 C210.12,67.17 206.78,65.92 206.78,65.92" fill="none" stroke="rgb(255, 255, 255)" stroke-width="13.15" stroke-opacity="1.00" stroke-linejoin="round"/>
<path d="M202.43,63.81 C202.43,63.81 194.83,62.43 194.83,62.43" fill="none" stroke="rgb(255, 255, 255)" stroke-width="13.15" stroke-opacity="1.00" stroke-linejoin="round"/>
<path d="M200.66,63.35 C200.66,63.35 205.16,66.52 205.16,66.52" fill="none" stroke="rgb(255, 255, 255)" stroke-width="13.15" stroke-opacity="1.00" stroke-linejoin="round"/>
<path d="M191.81,54.65 C191.81,54.65 193.94,48.21 193.94,48.21" fill="none" stroke="rgb(255, 255, 255)" stroke-width="13.15" stroke-opacity="1.00" stroke-linejoin="round"/>
<path d="M195.49,51.84 C195.49,51.84 198.14,45.63 198.14,45.63 C198.14,45.63 202.84,38.92 202.84,38.92 C202.84,38.92 206.11,31.75 206.11,31.75 C205.60,31.92 201.00,32.38 198.96,31.78 C193.82,30.16 191.46,25.89 191.03,25.26 C190.99,25.25 186.97,28.51 183.43,30.02 C181.80,30.70 177.07,29.32 176.30,29.32 C176.69,30.48 180.23,33.45 180.61,33.85 C181.70,35.06 182.06,37.28 181.55,39.24 C180.97,41.30 175.05,53.23 173.60,55.26 C171.05,58.71 167.79,65.39 167.64,65.66 C167.08,66.75 162.92,75.64 162.62,76.50 C162.27,77.51 158.27,93.59 156.43,96.87 C154.96,99.43 146.46,109.01 143.00,113.19 C141.24,115.09 131.72,118.24 127.81,118.69 C122.09,119.32 93.75,118.04 86.37,116.51 C76.19,114.25 70.46,112.66 64.02,110.23 C61.59,109.30 50.16,100.87 47.19,98.45 C45.80,97.32 43.61,96.12 42.87,95.29 C40.63,92.77 38.82,92.23 38.57,92.23 C38.53,92.64 41.19,97.98 44.46,106.17 C45.92,109.98 47.54,112.22 49.29,113.45 C51.13,114.71 83.03,127.75 91.02,129.79 C100.83,132.26 114.01,132.10 115.24,132.07 C109.15,131.35 94.88,129.20 88.65,128.55 C83.50,128.05 74.66,127.83 74.66,127.83 C79.11,127.00 88.32,125.43 93.75,125.08 C105.83,124.33 129.70,126.06 144.79,127.55 C130.09,127.33 105.70,127.28 89.09,128.36 C74.91,129.36 63.22,127.79 61.44,127.84 C61.44,127.84 72.15,138.25 72.15,138.25 C72.15,138.25 62.05,137.89 62.05,137.89 C61.89,139.01 62.15,139.89 63.21,141.13 C65.33,143.52 71.48,150.40 71.94,151.04 C71.16,151.47 70.29,151.45 68.66,150.83 C60.22,147.55 57.77,146.87 56.93,146.72 C58.66,149.33 70.35,156.25 76.04,158.91 C82.05,161.69 93.38,165.48 97.56,166.12 C100.63,166.56 104.01,166.13 104.80,165.30 C104.61,164.35 104.35,163.92 103.58,163.63 C96.31,160.88 73.90,159.47 74.72,160.09 C75.85,161.05 82.48,161.98 91.44,162.41 C108.62,162.99 123.13,161.49 125.09,160.60 C124.29,159.14 123.30,158.27 121.39,157.55 C117.65,156.16 104.00,153.02 96.91,151.56 C77.83,148.12 66.24,147.22 63.80,147.31 C64.77,148.25 100.85,151.54 112.02,151.83 C120.02,151.91 132.39,151.48 134.66,151.15 C137.52,150.71 140.65,149.94 142.25,149.19 C142.96,148.85 143.35,148.33 143.82,147.33 C142.92,145.76 139.49,144.33 136.40,143.49 C131.59,142.21 118.58,140.15 111.41,139.39 C100.81,138.33 93.22,138.41 92.25,138.90 C93.05,140.03 103.83,142.88 108.58,143.54 C119.97,145.09 130.28,144.54 130.98,144.04 C129.92,142.83 118.50,141.45 112.22,141.45 C95.56,141.46 87.04,142.62 86.98,142.72 C87.60,142.70 100.81,138.86 104.98,138.15 C108.71,137.54 120.90,137.25 127.89,137.58 C148.33,138.91 154.89,139.84 157.51,140.26 C154.99,139.78 135.70,137.50 132.22,136.91 C121.68,135.12 118.08,134.00 118.21,133.87 C120.69,133.25 130.38,133.62 140.02,134.41 C146.13,135.09 159.91,136.56 160.52,136.05 C160.52,136.05 154.17,131.33 154.17,131.33 C156.52,133.91 156.45,135.50 156.26,135.89 C154.66,136.67 149.55,133.00 149.53,132.12 C150.21,131.93 153.17,133.15 155.46,134.62 C157.67,136.05 163.03,139.94 164.23,141.94 C164.65,142.69 164.43,149.36 164.34,149.98 C163.69,154.14 158.64,165.57 158.63,167.86 C158.64,169.48 158.67,175.64 158.87,176.27 C160.29,176.09 165.54,168.96 167.65,165.01 C171.43,157.90 175.04,139.51 175.28,134.83 C175.28,134.83 174.36,161.89 174.36,161.89 C174.83,161.82 178.36,157.23 179.41,154.91 C180.65,152.10 181.34,146.85 181.14,145.32 C180.40,140.35 176.95,138.18 176.38,138.01 C175.61,138.60 175.12,142.43 175.43,146.23 C175.76,149.99 177.10,156.48 178.05,158.69 C179.02,160.91 180.19,161.82 180.75,162.01 C181.68,161.29 182.45,158.16 182.68,154.65 C182.99,149.30 181.85,138.78 180.39,134.64 C178.94,130.61 173.76,120.55 171.23,117.92 C169.04,115.67 165.53,113.37 164.43,111.89 C164.24,111.63 164.05,111.37 163.86,111.10 C163.86,111.10 171.49,142.34 171.49,142.34 C171.47,142.33 163.59,130.68 159.48,126.53 C155.78,122.83 146.72,115.78 146.18,115.44 C146.18,115.44 166.84,131.62 166.84,131.62 C166.19,131.40 162.15,128.40 160.13,126.39 C157.83,124.08 154.98,120.03 154.47,118.55 C154.08,117.28 153.94,114.63 154.72,112.58 C155.05,111.70 156.89,108.59 157.02,108.30 C157.78,106.59 157.96,101.24 158.42,100.18 C159.51,97.93 164.16,96.44 165.21,96.23 C165.15,97.03 163.62,101.44 163.49,104.07 C163.38,106.54 164.29,112.03 165.38,114.50 C166.55,117.10 167.85,117.93 168.60,118.10 C170.09,117.63 171.54,113.81 171.88,111.10 C172.42,106.33 171.50,98.41 169.73,89.19 C169.28,86.95 168.21,81.50 167.98,80.06 C167.02,73.66 168.41,70.82 168.56,70.33 C168.60,70.31 167.47,82.12 167.58,90.40 C167.69,94.64 167.88,101.92 167.99,103.46 C168.36,102.19 171.29,86.00 172.43,79.52 C173.68,72.45 176.13,58.93 177.86,54.96 C179.00,52.40 180.77,51.29 181.93,50.84 C181.93,50.84 183.21,51.17 183.21,51.17 C184.33,52.66 184.51,57.29 183.76,60.13 C182.86,63.37 181.17,67.07 178.77,71.89 C177.72,74.05 176.97,77.05 177.25,78.24 C178.58,78.76 179.49,78.70 180.63,77.89 C183.37,75.92 188.25,68.93 190.92,64.42" fill="none" stroke="rgb(255, 255, 255)" stroke-width="13.15" stroke-opacity="1.00" stroke-linejoin="round"/>
<path d="M192.38,53.53 C192.38,53.53 190.71,50.91 190.71,50.91" fill="none" stroke="rgb(255, 255, 255)" stroke-width="13.15" stroke-opacity="1.00" stroke-linejoin="round"/>
<path d="M196.07,46.63 C196.07,46.63 196.15,41.57 196.15,41.57" fill="none" stroke="rgb(255, 255, 255)" stroke-width="13.15" stroke-opacity="1.00" stroke-linejoin="round"/>
<path d="M200.35,47.41 C200.35,47.41 197.50,49.45 197.50,49.45" fill="none" stroke="rgb(255, 255, 255)" stroke-width="13.15" stroke-opacity="1.00" stroke-linejoin="round"/>
<path d="M199.16,48.11 C199.16,48.11 196.45,50.18 196.45,50.18" fill="none" stroke="rgb(255, 255, 255)" stroke-width="13.15" stroke-opacity="1.00" stroke-linejoin="round"/>
<path d="M192.64,60.25 C192.64,60.25 189.98,64.43 189.98,64.43" fill="none" stroke="rgb(255, 255, 255)" stroke-width="13.15" stroke-opacity="1.00" stroke-linejoin="round"/>
<path d="M202.64,47.80 C202.64,47.80 200.92,48.58 200.92,48.58" fill="none" stroke="rgb(255, 255, 255)" stroke-width="13.15" stroke-opacity="1.00" stroke-linejoin="round"/>
<path d="M198.73,48.72 C198.73,48.72 197.63,49.04 197.63,49.04" fill="none" stroke="rgb(255, 255, 255)" stroke-width="13.15" stroke-opacity="1.00" stroke-linejoin="round"/>
<path d="M199.67,49.55 C199.67,49.55 198.40,49.92 198.40,49.92" fill="none" stroke="rgb(255, 255, 255)" stroke-width="13.15" stroke-opacity="1.00" stroke-linejoin="round"/>
<path d="M195.83,49.79 C195.83,49.79 194.19,50.47 194.19,50.47" fill="none" stroke="rgb(255, 255, 255)" stroke-width="13.15" stroke-opacity="1.00" stroke-linejoin="round"/>
<path d="M192.65,54.61 C192.65,54.61 191.76,57.47 191.76,57.47" fill="none" stroke="rgb(255, 255, 255)" stroke-width="13.15" stroke-opacity="1.00" stroke-linejoin="round"/>
<path d="M193.74,57.33 C193.74,57.33 196.65,65.98 196.65,65.98" fill="none" stroke="rgb(255, 255, 255)" stroke-width="13.15" stroke-opacity="1.00" stroke-linejoin="round"/>
<path d="M195.57,62.62 C195.57,62.62 195.00,63.81 195.00,63.81 C195.10,63.90 194.25,63.82 193.87,63.56 C193.38,63.20 190.92,57.75 189.38,54.83 C188.95,54.00 185.52,47.81 185.81,46.35 C186.09,45.06 189.67,38.78 190.10,38.31 C191.17,38.84 190.33,46.91 190.12,48.07 C190.12,48.07 189.31,45.25 189.31,45.25 C189.18,45.47 189.23,45.64 189.66,46.22 C189.73,46.32 189.81,46.46 189.91,46.63" fill="none" stroke="rgb(255, 255, 255)" stroke-width="13.15" stroke-opacity="1.00" stroke-linejoin="round"/>
<path d="M201.42,55.01 C201.42,55.01 201.40,53.11 201.40,53.11" fill="none" stroke="rgb(255, 255, 255)" stroke-width="5.00" stroke-opacity="1.00" stroke-linejoin="round"/>
<path d="M208.52,59.58 C208.52,59.58 208.39,59.71 208.39,59.71 C208.39,59.71 208.22,59.44 208.22,59.44 C208.22,59.44 209.91,57.59 209.91,57.59 C209.91,57.59 206.57,59.55 206.57,59.55 C206.57,59.55 208.16,57.77 208.16,57.77 C208.16,57.77 206.70,57.95 206.70,57.95 C207.22,58.04 208.34,57.25 208.58,56.26 C208.78,55.34 208.33,53.32 207.68,52.22 C205.55,48.72 201.83,47.24 200.14,47.01 C200.14,47.01 204.04,47.40 204.04,47.40 C204.04,47.40 203.49,46.05 203.49,46.05 C203.49,46.05 205.51,47.09 205.51,47.09 C205.42,46.69 206.54,46.75 211.19,52.69 C211.51,53.12 211.84,53.56 212.17,54.00" fill="none" stroke="rgb(255, 255, 255)" stroke-width="2.25" stroke-opacity="1.00" stroke-linejoin="round"/>
<path d="M207.61,49.36 C207.61,49.36 207.52,49.35 207.52,49.35 C207.70,49.69 208.20,50.37 208.56,50.87 C209.87,52.90 210.88,59.72 210.85,59.60 C210.85,59.60 211.13,54.88 211.13,54.88 C211.13,54.88 210.84,60.89 210.84,60.89 C211.32,59.75 211.65,56.91 211.33,55.61 C211.31,55.54 211.29,55.51 211.27,55.52 C211.27,55.52 210.99,56.01 210.99,56.01" fill="none" stroke="rgb(255, 255, 255)" stroke-width="2.25" stroke-opacity="1.00" stroke-linejoin="round"/>
<path d="M208.27,55.52 C208.27,55.52 208.29,55.19 208.29,55.19 C208.29,55.19 208.45,55.04 208.45,55.04 C209.74,55.98 207.01,58.93 204.89,60.73 C204.08,61.41 203.58,61.67 203.31,61.73" fill="none" stroke="rgb(255, 255, 255)" stroke-width="2.25" stroke-opacity="1.00" stroke-linejoin="round"/>
<path d="M208.34,55.22 C208.34,55.22 208.37,55.15 208.37,55.15 C208.34,55.19 207.76,55.79 207.52,56.05 C205.81,57.90 203.23,60.17 202.01,60.18 C201.13,60.15 200.41,59.50 200.38,59.37" fill="none" stroke="rgb(255, 255, 255)" stroke-width="2.25" stroke-opacity="1.00" stroke-linejoin="round"/>
<path d="M204.46,58.28 C204.46,58.28 204.60,58.40 204.60,58.40 C204.60,58.40 204.60,58.48 204.60,58.48 C202.53,59.20 199.95,59.26 198.50,58.58 C197.84,58.25 197.26,57.76 196.81,57.22 C196.81,57.22 197.02,57.06 197.02,57.06" fill="none" stroke="rgb(255, 255, 255)" stroke-width="2.25" stroke-opacity="1.00" stroke-linejoin="round"/>
<path d="M201.95,58.70 C201.95,58.70 201.86,58.87 201.86,58.87 C200.82,58.60 198.32,56.69 197.44,55.65 C196.49,54.48 195.87,52.40 196.15,51.81 C196.17,51.76 196.22,51.71 196.29,51.64 C196.33,51.65 196.35,51.66 196.36,51.66 C196.37,51.67 196.39,51.68 196.42,51.71" fill="none" stroke="rgb(255, 255, 255)" stroke-width="2.25" stroke-opacity="1.00" stroke-linejoin="round"/>
<path d="M199.14,57.22 C199.14,57.22 199.19,57.43 199.19,57.43 C198.54,56.19 198.04,55.12 197.88,54.51 C197.40,52.53 198.62,48.24 199.16,47.72 C199.21,47.68 199.26,47.63 199.30,47.58 C199.30,47.58 199.32,47.80 199.32,47.80" fill="none" stroke="rgb(255, 255, 255)" stroke-width="2.25" stroke-opacity="1.00" stroke-linejoin="round"/>
<path d="M198.58,52.01 C198.64,51.95 198.67,51.91 198.68,51.88 C198.73,51.78 199.09,51.02 199.49,50.50 C200.16,49.65 201.18,48.89 202.02,48.62 C202.90,48.35 203.90,48.49 204.40,48.78" fill="none" stroke="rgb(255, 255, 255)" stroke-width="2.25" stroke-opacity="1.00" stroke-linejoin="round"/>
<path d="M200.35,49.21 C200.83,49.12 201.15,49.06 201.33,49.01 C202.22,48.81 204.54,49.20 205.97,50.22 C206.83,50.84 208.16,52.28 208.89,53.23" fill="none" stroke="rgb(255, 255, 255)" stroke-width="2.25" stroke-opacity="1.00" stroke-linejoin="round"/>
<path d="M206.73,51.27 C206.77,51.44 206.82,51.58 206.87,51.70 C207.19,52.50 207.42,53.93 207.44,55.59 C207.44,56.33 207.41,57.20 207.34,58.19 C207.32,58.44 207.29,58.62 207.26,58.74" fill="none" stroke="rgb(255, 255, 255)" stroke-width="2.25" stroke-opacity="1.00" stroke-linejoin="round"/>
<path d="M206.57,58.40 C206.28,58.61 206.11,58.74 206.05,58.77 C205.59,59.01 200.82,58.94 199.75,58.29 C199.47,58.11 198.05,57.08 198.01,57.02 C197.99,56.99 197.96,56.90 197.93,56.77 C197.93,56.77 197.95,56.70 197.95,56.70" fill="none" stroke="rgb(255, 255, 255)" stroke-width="2.25" stroke-opacity="1.00" stroke-linejoin="round"/>
<path d="M198.88,57.07 C198.91,57.03 198.93,56.99 198.92,56.97 C198.91,56.79 198.33,53.06 198.42,52.48 C198.51,52.65 199.23,56.58 200.25,57.85 C200.73,58.39 204.26,57.93 204.95,57.89 C205.25,57.87 205.53,57.88 205.80,57.94 C205.81,57.94 205.82,57.95 205.82,57.95" fill="none" stroke="rgb(255, 255, 255)" stroke-width="2.25" stroke-opacity="1.00" stroke-linejoin="round"/>
<path d="M203.94,57.76 C203.97,57.78 204.91,57.74 205.19,57.61 C205.51,57.46 205.93,56.75 206.15,56.27 C206.12,56.31 208.11,56.58 205.75,58.04 C205.50,58.06 200.45,57.29 199.64,57.33 C199.35,57.35 199.15,57.43 199.08,57.45" fill="none" stroke="rgb(255, 255, 255)" stroke-width="2.25" stroke-opacity="1.00" stroke-linejoin="round"/>
<path d="M201.64,57.41 C201.70,57.39 201.86,57.38 202.10,57.38 C203.53,57.37 206.77,57.28 207.23,57.37 C207.33,57.39 207.41,57.43 207.46,57.49 C207.50,57.55 207.52,57.59 207.52,57.59" fill="none" stroke="rgb(255, 255, 255)" stroke-width="2.25" stroke-opacity="1.00" stroke-linejoin="round"/>
<path d="M200.67,57.76 C200.39,57.77 200.22,57.78 200.17,57.78 C200.09,57.77 199.79,57.54 199.75,57.44 C199.54,56.99 199.31,52.57 199.06,50.03 C199.06,50.03 198.99,50.02 198.99,50.02" fill="none" stroke="rgb(255, 255, 255)" stroke-width="2.25" stroke-opacity="1.00" stroke-linejoin="round"/>
<path d="M199.17,52.97 C199.17,52.97 199.30,53.08 199.30,53.08 C199.37,52.96 199.52,52.73 199.56,52.52 C199.88,50.69 200.16,50.17 201.31,50.07 C201.57,50.05 201.93,50.02 202.21,50.02 C202.68,49.55 204.38,49.50 204.69,49.71 C204.74,49.74 204.78,49.77 204.82,49.79" fill="none" stroke="rgb(255, 255, 255)" stroke-width="2.25" stroke-opacity="1.00" stroke-linejoin="round"/>
<path d="M211.51,56.37 C211.51,56.37 210.57,55.29 210.57,55.29 C210.57,55.29 215.83,61.90 215.83,61.90 C215.83,61.90 214.79,60.54 214.79,60.54" fill="none" stroke="rgb(255, 255, 255)" stroke-width="2.25" stroke-opacity="1.00" stroke-linejoin="round"/>
<path d="M210.18,56.74 C210.26,56.75 210.45,56.85 210.73,57.05 C212.50,58.31 214.20,59.78 215.62,61.30 C216.59,62.34 217.16,62.96 217.33,63.16 C217.50,63.37 217.68,63.61 217.86,63.89 C217.86,63.89 217.71,63.82 217.71,63.82" fill="none" stroke="rgb(255, 255, 255)" stroke-width="2.25" stroke-opacity="1.00" stroke-linejoin="round"/>
<path d="M209.72,57.68 C209.72,57.68 209.66,57.63 209.66,57.63 C210.11,57.94 211.26,58.79 211.82,59.28 C213.25,60.51 217.28,64.88 218.05,65.81 C218.25,66.05 218.51,66.39 218.85,66.84 C218.85,66.84 218.25,66.44 218.25,66.44" fill="none" stroke="rgb(255, 255, 255)" stroke-width="2.25" stroke-opacity="1.00" stroke-linejoin="round"/>
<path d="M213.21,58.79 C213.21,58.79 213.28,58.71 213.28,58.71 C213.38,58.68 213.84,58.86 214.28,59.22 C215.06,59.86 216.87,61.98 217.88,63.48 C218.68,64.68 220.09,67.27 220.45,68.08 C220.53,68.27 220.61,68.50 220.70,68.78" fill="none" stroke="rgb(255, 255, 255)" stroke-width="2.25" stroke-opacity="1.00" stroke-linejoin="round"/>
<path d="M216.39,61.94 C216.39,61.94 216.43,61.90 216.43,61.90 C216.58,62.04 218.81,64.22 219.88,66.38 C220.15,66.92 220.37,67.48 220.65,68.02 C220.80,68.31 221.14,68.89 221.65,69.76" fill="none" stroke="rgb(255, 255, 255)" stroke-width="2.25" stroke-opacity="1.00" stroke-linejoin="round"/>
<path d="M218.68,63.83 C218.73,63.79 219.13,64.26 219.53,64.84 C219.82,65.27 221.14,68.52 221.61,69.56 C221.67,69.69 221.78,69.95 221.94,70.33 C221.94,70.34 221.95,70.35 221.95,70.35" fill="none" stroke="rgb(255, 255, 255)" stroke-width="2.25" stroke-opacity="1.00" stroke-linejoin="round"/>
<path d="M220.16,66.41 C220.16,66.41 220.29,66.43 220.29,66.43 C220.41,66.48 220.90,67.35 221.27,68.30 C221.98,70.21 222.78,72.36 222.80,72.53 C222.80,72.53 222.91,72.59 222.91,72.59" fill="none" stroke="rgb(255, 255, 255)" stroke-width="2.25" stroke-opacity="1.00" stroke-linejoin="round"/>
<path d="M221.46,67.90 C221.76,68.53 221.97,69.21 222.22,70.52 C222.40,71.54 222.59,72.56 222.78,73.58 C222.78,73.58 222.71,73.38 222.71,73.38 C222.71,73.38 222.78,73.25 222.78,73.25" fill="none" stroke="rgb(255, 255, 255)" stroke-width="2.25" stroke-opacity="1.00" stroke-linejoin="round"/>
<path d="M222.24,70.39 C222.26,70.40 222.47,71.18 222.50,71.62 C222.59,73.37 221.55,73.70 220.72,73.37 C220.37,73.22 220.04,73.03 219.70,72.87 C219.49,72.77 219.10,72.59 218.54,72.35" fill="none" stroke="rgb(255, 255, 255)" stroke-width="2.25" stroke-opacity="1.00" stroke-linejoin="round"/>
<path d="M220.48,72.20 C220.47,72.20 220.44,72.20 220.42,72.21 C220.22,72.28 219.75,72.26 219.18,72.13 C218.05,71.87 213.93,69.95 213.69,69.77 C213.63,69.72 213.57,69.64 213.52,69.54 C213.52,69.54 213.69,69.49 213.69,69.49" fill="none" stroke="rgb(255, 255, 255)" stroke-width="2.25" stroke-opacity="1.00" stroke-linejoin="round"/>
<path d="M219.09,71.68 C218.88,71.88 218.19,71.91 215.87,71.12 C213.67,70.40 213.39,70.23 213.19,70.04 C213.19,70.04 213.24,69.92 213.24,69.92 C213.24,69.92 213.79,69.84 213.79,69.84" fill="none" stroke="rgb(255, 255, 255)" stroke-width="2.25" stroke-opacity="1.00" stroke-linejoin="round"/>
<path d="M217.72,71.41 C217.72,71.41 217.70,71.98 217.70,71.98 C217.16,72.19 214.38,71.64 213.01,70.75 C212.79,70.61 212.59,70.39 212.40,70.09 C212.55,69.97 212.65,69.91 212.70,69.88 C212.76,69.86 212.85,69.85 212.97,69.86" fill="none" stroke="rgb(255, 255, 255)" stroke-width="2.25" stroke-opacity="1.00" stroke-linejoin="round"/>
<path d="M218.23,72.10 C218.14,72.07 218.03,72.00 217.92,71.89 C217.01,71.00 215.40,68.84 215.00,68.26 C215.00,68.26 220.06,72.97 220.06,72.97 C220.06,72.97 216.38,68.45 216.38,68.45 C216.38,68.45 221.12,71.76 221.12,71.76 C221.12,71.76 221.08,71.84 221.08,71.84 C221.08,71.84 220.87,71.71 220.87,71.71" fill="none" stroke="rgb(255, 255, 255)" stroke-width="2.25" stroke-opacity="1.00" stroke-linejoin="round"/>
<path d="M217.08,67.91 C217.08,67.91 217.16,67.84 217.16,67.84 C217.52,68.08 217.82,68.30 218.05,68.48 C220.20,70.15 221.25,71.71 221.54,72.26 C221.54,72.26 221.32,72.35 221.32,72.35 C221.32,72.35 221.20,72.30 221.20,72.30" fill="none" stroke="rgb(255, 255, 255)" stroke-width="2.25" stroke-opacity="1.00" stroke-linejoin="round"/>
<path d="M214.73,70.72 C214.73,70.72 214.71,71.03 214.71,71.03 C214.75,71.08 216.32,71.69 217.92,72.44 C218.30,72.62 218.88,72.90 219.65,73.28" fill="none" stroke="rgb(255, 255, 255)" stroke-width="2.25" stroke-opacity="1.00" stroke-linejoin="round"/>
<path d="M215.05,71.36 C215.12,71.46 216.61,72.24 217.76,72.68 C218.81,73.03 219.86,73.38 220.90,73.73 C221.25,73.86 221.55,74.00 221.79,74.18" fill="none" stroke="rgb(255, 255, 255)" stroke-width="2.25" stroke-opacity="1.00" stroke-linejoin="round"/>
<path d="M218.59,68.93 C218.51,68.79 218.42,68.62 218.35,68.44 C218.09,67.81 217.26,65.80 216.43,64.17 C215.85,63.07 215.08,61.61 215.04,61.56 C215.03,61.53 215.01,61.50 214.98,61.46" fill="none" stroke="rgb(255, 255, 255)" stroke-width="2.25" stroke-opacity="1.00" stroke-linejoin="round"/>
<path d="M221.75,68.71 C221.73,68.64 221.56,68.22 221.49,68.03 C220.66,66.10 219.55,64.28 218.01,62.46 C217.77,62.17 215.84,60.02 215.56,59.71 C215.53,59.68 215.47,59.63 215.37,59.55" fill="none" stroke="rgb(255, 255, 255)" stroke-width="2.25" stroke-opacity="1.00" stroke-linejoin="round"/>
<path d="M219.35,64.27 C219.05,63.70 218.77,63.22 218.53,62.83 C217.49,61.20 215.96,59.09 215.14,58.31 C214.66,57.84 211.79,55.19 211.32,54.78 C211.22,54.68 211.15,54.64 211.13,54.65" fill="none" stroke="rgb(255, 255, 255)" stroke-width="2.25" stroke-opacity="1.00" stroke-linejoin="round"/>
<path d="M215.69,59.46 C215.66,59.40 215.64,59.34 215.61,59.28 C215.46,58.91 214.91,57.50 214.76,56.98 C214.53,56.21 213.08,51.54 212.52,51.01 C212.47,50.97 212.40,50.94 212.31,50.91" fill="none" stroke="rgb(255, 255, 255)" stroke-width="2.25" stroke-opacity="1.00" stroke-linejoin="round"/>
<path d="M213.12,54.55 C212.97,54.07 212.88,53.74 212.83,53.56 C212.73,53.12 212.17,50.92 211.62,49.53 C210.90,47.74 209.75,45.97 208.69,44.90 C208.53,44.74 208.37,44.61 208.21,44.49" fill="none" stroke="rgb(255, 255, 255)" stroke-width="2.25" stroke-opacity="1.00" stroke-linejoin="round"/>
<path d="M213.25,52.93 C213.07,52.36 212.91,51.87 212.78,51.47 C211.94,49.06 210.65,45.97 209.76,44.39 C209.32,43.60 207.81,41.31 207.74,41.21 C207.71,41.18 207.65,41.12 207.55,41.02" fill="none" stroke="rgb(255, 255, 255)" stroke-width="2.25" stroke-opacity="1.00" stroke-linejoin="round"/>
<path d="M212.09,50.85 C212.01,50.64 211.71,49.64 210.52,45.38 C209.50,41.71 208.13,39.67 206.89,38.95 C206.80,38.90 206.69,38.87 206.57,38.83 C206.57,38.83 206.72,38.98 206.72,38.98" fill="none" stroke="rgb(255, 255, 255)" stroke-width="2.25" stroke-opacity="1.00" stroke-linejoin="round"/>
<path d="M206.98,44.15 C206.99,44.26 207.65,45.33 207.93,45.77 C208.78,47.14 209.79,49.03 210.11,49.63 C210.24,49.87 210.41,50.16 210.62,50.49 C210.63,50.51 210.67,50.57 210.66,50.55 C210.66,50.55 210.60,50.51 210.60,50.51" fill="none" stroke="rgb(255, 255, 255)" stroke-width="2.25" stroke-opacity="1.00" stroke-linejoin="round"/>
<path d="M213.07,51.37 C213.07,51.37 213.11,51.46 213.11,51.46 C213.11,51.46 213.06,51.49 213.06,51.49 C213.08,51.38 212.23,49.24 211.88,48.36 C210.07,43.78 208.97,41.38 208.28,40.63 C208.05,40.38 207.72,40.20 207.45,40.10 C207.45,40.09 207.43,40.09 207.44,40.10" fill="none" stroke="rgb(255, 255, 255)" stroke-width="2.25" stroke-opacity="1.00" stroke-linejoin="round"/>
<path d="M208.27,41.00 C208.30,41.05 208.32,41.09 208.34,41.14 C208.37,41.20 208.39,41.25 208.42,41.31 C208.59,41.20 209.09,39.59 209.31,38.93 C209.44,38.54 209.70,37.85 210.09,36.87 C210.01,36.99 209.96,37.07 209.93,37.11 C209.91,37.15 209.89,37.19 209.86,37.25" fill="none" stroke="rgb(255, 255, 255)" stroke-width="2.25" stroke-opacity="1.00" stroke-linejoin="round"/>
<path d="M208.52,41.45 C208.52,41.45 208.54,41.57 208.54,41.57 C208.93,41.15 209.22,40.80 209.41,40.52 C209.68,40.10 212.52,34.97 212.55,34.75 C212.55,34.75 212.45,34.64 212.45,34.64" fill="none" stroke="rgb(255, 255, 255)" stroke-width="2.25" stroke-opacity="1.00" stroke-linejoin="round"/>
<path d="M210.36,38.80 C210.36,38.80 210.37,38.89 210.37,38.89 C210.37,38.89 210.43,38.92 210.43,38.92 C210.77,38.66 211.41,37.71 211.73,36.75 C212.32,35.01 212.36,32.93 211.90,31.40 C211.82,31.16 211.66,30.89 211.66,30.88" fill="none" stroke="rgb(255, 255, 255)" stroke-width="2.25" stroke-opacity="1.00" stroke-linejoin="round"/>
<path d="M212.02,35.64 C212.02,35.64 212.09,35.63 212.09,35.63 C212.17,35.51 212.21,35.43 212.23,35.39 C212.29,35.22 212.57,33.05 212.53,32.29 C212.48,31.31 211.94,29.35 211.31,27.33 C211.22,27.07 211.16,26.86 211.12,26.69" fill="none" stroke="rgb(255, 255, 255)" stroke-width="2.25" stroke-opacity="1.00" stroke-linejoin="round"/>
<path d="M212.32,31.97 C212.31,31.86 212.44,31.09 212.44,30.98 C212.55,27.52 210.20,25.58 209.25,25.27 C209.11,25.22 208.98,25.21 208.85,25.22 C208.82,25.23 208.79,25.24 208.77,25.27" fill="none" stroke="rgb(255, 255, 255)" stroke-width="2.25" stroke-opacity="1.00" stroke-linejoin="round"/>
<path d="M211.68,27.60 C211.42,27.23 211.26,26.99 211.17,26.88 C209.93,25.29 206.96,26.05 206.29,26.11 C206.28,26.26 206.27,26.35 206.27,26.39 C206.27,26.43 206.28,26.46 206.30,26.49" fill="none" stroke="rgb(255, 255, 255)" stroke-width="2.25" stroke-opacity="1.00" stroke-linejoin="round"/>
<path d="M209.94,26.03 C209.94,25.96 209.93,25.91 209.89,25.85 C209.51,25.32 207.72,24.40 206.40,24.57 C205.88,24.64 203.51,25.61 203.22,25.69 C203.11,25.72 202.98,25.77 202.83,25.84 C202.86,25.89 202.88,25.93 202.89,25.95 C202.91,25.96 202.93,25.99 202.98,26.02" fill="none" stroke="rgb(255, 255, 255)" stroke-width="2.25" stroke-opacity="1.00" stroke-linejoin="round"/>
<path d="M208.04,25.11 C207.97,25.02 207.58,24.87 207.08,24.74 C205.83,24.46 203.08,24.90 200.69,25.60 C200.46,25.66 198.87,25.98 198.39,26.08 C198.46,26.15 198.51,26.20 198.53,26.22 C198.55,26.23 198.58,26.25 198.62,26.27" fill="none" stroke="rgb(255, 255, 255)" stroke-width="2.25" stroke-opacity="1.00" stroke-linejoin="round"/>
<path d="M203.41,24.89 C203.41,24.89 203.90,24.79 203.90,24.79 C203.90,24.79 197.83,25.16 197.83,25.16 C197.83,25.16 197.86,25.10 197.86,25.10 C197.86,25.10 198.40,25.13 198.40,25.13" fill="none" stroke="rgb(255, 255, 255)" stroke-width="2.25" stroke-opacity="1.00" stroke-linejoin="round"/>
<path d="M205.91,24.65 C205.91,24.65 205.93,24.57 205.93,24.57 C205.78,24.49 205.62,24.40 205.46,24.32 C203.96,23.63 198.49,23.70 197.39,23.99 C197.26,24.03 197.15,24.13 197.03,24.20 C196.94,24.26 196.83,24.28 196.73,24.33 C196.70,24.35 196.69,24.36 196.68,24.38" fill="none" stroke="rgb(255, 255, 255)" stroke-width="2.25" stroke-opacity="1.00" stroke-linejoin="round"/>
<path d="M202.20,23.93 C202.19,23.92 201.41,23.85 200.12,23.19 C200.00,23.13 199.93,23.09 199.92,23.09 C199.92,23.09 199.89,22.99 199.89,22.99 C199.89,22.99 199.93,22.94 199.93,22.94 C199.93,22.94 200.15,22.91 200.15,22.91" fill="none" stroke="rgb(255, 255, 255)" stroke-width="1.06" stroke-opacity="1.00" stroke-linejoin="round"/>
<path d="M202.59,23.40 C202.59,23.40 202.90,23.37 202.90,23.37 C202.74,23.20 198.69,22.99 198.55,22.98 C198.25,22.99 197.74,22.92 197.61,22.88 C197.68,22.90 197.72,22.92 197.75,22.93 C197.78,22.93 197.83,22.95 197.91,22.97" fill="none" stroke="rgb(255, 255, 255)" stroke-width="1.06" stroke-opacity="1.00" stroke-linejoin="round"/>
<path d="M202.62,22.94 C202.62,22.94 202.73,22.94 202.73,22.94 C202.52,22.94 202.38,22.93 202.31,22.92 C201.48,22.84 198.23,22.83 197.95,22.76 C197.93,22.75 197.84,22.73 197.69,22.68" fill="none" stroke="rgb(255, 255, 255)" stroke-width="1.06" stroke-opacity="1.00" stroke-linejoin="round"/>
<path d="M200.14,23.16 C200.02,23.02 198.69,21.11 198.02,20.41 C197.35,19.69 196.85,19.32 196.76,19.28" fill="none" stroke="rgb(255, 255, 255)" stroke-width="1.06" stroke-opacity="1.00" stroke-linejoin="round"/>
<path d="M198.98,21.43 C198.98,21.43 199.03,21.42 199.03,21.42 C199.16,21.24 198.99,20.63 198.51,20.10 C198.29,19.87 197.61,19.34 197.04,18.93 C196.95,18.87 196.78,18.76 196.54,18.61 C196.53,18.60 196.51,18.59 196.52,18.59" fill="none" stroke="rgb(255, 255, 255)" stroke-width="1.06" stroke-opacity="1.00" stroke-linejoin="round"/>
<path d="M198.05,20.11 C198.05,20.00 198.01,19.81 197.94,19.63 C197.41,18.28 196.43,17.59 196.29,17.53 C196.24,17.51 196.14,17.48 196.00,17.45" fill="none" stroke="rgb(255, 255, 255)" stroke-width="1.06" stroke-opacity="1.00" stroke-linejoin="round"/>
<path d="M198.56,19.69 C198.56,19.69 198.81,19.81 198.81,19.81 C198.76,19.67 198.03,18.55 197.56,18.12 C197.18,17.76 196.08,17.15 196.03,17.15 C196.02,17.15 196.03,17.17 196.06,17.21" fill="none" stroke="rgb(255, 255, 255)" stroke-width="1.06" stroke-opacity="1.00" stroke-linejoin="round"/>
<path d="M199.15,20.28 C199.21,20.37 199.26,20.43 199.29,20.46 C199.55,20.75 199.74,21.31 199.65,21.66 C199.64,21.69 199.63,21.72 199.60,21.75 C199.60,21.75 199.31,21.70 199.31,21.70" fill="none" stroke="rgb(255, 255, 255)" stroke-width="1.06" stroke-opacity="1.00" stroke-linejoin="round"/>
<path d="M198.10,22.41 C198.10,22.41 198.04,22.54 198.04,22.54 C197.97,22.50 196.27,20.09 195.80,19.70 C195.03,19.09 194.09,18.34 193.96,18.19 C193.91,18.14 193.84,18.04 193.73,17.89" fill="none" stroke="rgb(255, 255, 255)" stroke-width="1.06" stroke-opacity="1.00" stroke-linejoin="round"/>
<path d="M196.84,22.46 C196.89,22.52 196.74,22.33 196.69,22.27 C195.79,21.17 195.07,20.33 194.61,19.89 C193.61,18.92 193.47,18.71 193.46,18.65" fill="none" stroke="rgb(255, 255, 255)" stroke-width="1.06" stroke-opacity="1.00" stroke-linejoin="round"/>
<path d="M196.65,19.97 C196.68,19.89 196.69,19.82 196.68,19.78 C196.65,19.46 195.89,18.10 195.17,17.47 C194.87,17.21 194.38,16.89 194.16,16.77 C194.11,16.74 194.06,16.72 193.98,16.69" fill="none" stroke="rgb(255, 255, 255)" stroke-width="1.06" stroke-opacity="1.00" stroke-linejoin="round"/>
<path d="M196.31,18.13 C196.21,17.98 195.94,17.75 195.83,17.66 C194.70,16.68 193.47,16.16 193.32,16.08 C193.30,16.07 193.25,16.04 193.16,15.99 C193.16,15.99 193.22,15.97 193.22,15.97" fill="none" stroke="rgb(255, 255, 255)" stroke-width="1.06" stroke-opacity="1.00" stroke-linejoin="round"/>
<path d="M195.47,17.32 C195.42,17.11 194.78,16.41 193.44,15.54 C193.21,15.39 192.25,14.93 192.14,14.88 C191.96,14.81 191.80,14.78 191.73,14.77" fill="none" stroke="rgb(255, 255, 255)" stroke-width="1.06" stroke-opacity="1.00" stroke-linejoin="round"/>
<path d="M193.54,16.03 C193.47,15.96 193.16,15.77 192.74,15.53 C192.35,15.32 190.17,14.77 188.80,14.81 C188.20,14.83 187.94,14.86 187.90,14.90" fill="none" stroke="rgb(255, 255, 255)" stroke-width="1.06" stroke-opacity="1.00" stroke-linejoin="round"/>
<path d="M189.75,15.09 C189.47,15.04 189.26,15.01 189.11,14.98 C186.93,14.57 185.22,15.33 185.23,15.33 C185.23,15.33 186.44,14.53 186.44,14.53 C184.99,15.43 184.75,17.13 184.72,17.39 C184.70,17.66 184.68,17.92 184.65,18.18 C184.64,18.26 184.64,18.30 184.63,18.31" fill="none" stroke="rgb(255, 255, 255)" stroke-width="1.06" stroke-opacity="1.00" stroke-linejoin="round"/>
<path d="M184.60,17.65 C184.58,17.68 184.55,17.80 184.54,18.02 C184.51,18.48 184.39,19.70 184.57,20.97 C184.76,22.22 184.72,23.11 184.68,23.42 C184.68,23.42 185.81,15.90 185.81,15.90 C185.81,15.90 185.57,21.56 185.57,21.56 C185.57,21.56 186.69,16.02 186.69,16.02 C186.69,16.02 186.08,20.53 186.08,20.53 C186.08,20.53 187.71,15.12 187.71,15.12 C187.71,15.12 187.14,19.83 187.14,19.83 C189.69,17.65 186.95,15.74 186.24,15.68 C186.24,15.68 189.03,16.05 189.03,16.05 C189.03,16.05 187.28,15.67 187.28,15.67 C187.28,15.67 192.77,16.28 192.77,16.28 C192.77,16.28 188.83,15.73 188.83,15.73 C188.83,15.73 192.76,17.18 192.76,17.18 C192.76,17.18 189.71,16.54 189.71,16.54 C189.71,16.54 194.70,17.69 194.70,17.69 C194.70,17.69 189.06,17.41 189.06,17.41 C189.06,17.41 192.62,18.35 192.62,18.35 C192.62,18.35 189.47,17.92 189.47,17.92 C189.47,17.92 193.03,19.27 193.03,19.27 C193.05,19.32 192.96,19.34 192.78,19.34 C192.60,19.35 192.07,19.33 191.18,19.29" fill="none" stroke="rgb(255, 255, 255)" stroke-width="1.06" stroke-opacity="1.00" stroke-linejoin="round"/>
<path d="M188.50,19.41 C188.44,19.40 188.39,19.36 188.33,19.25 C188.28,19.16 188.23,19.08 188.18,18.99 C188.18,18.99 187.04,19.67 187.04,19.67 C187.04,19.67 188.48,18.22 188.48,18.22 C188.48,18.22 187.97,19.14 187.97,19.14" fill="none" stroke="rgb(255, 255, 255)" stroke-width="1.06" stroke-opacity="1.00" stroke-linejoin="round"/>
<path d="M179.20,23.84 C179.13,23.88 178.94,23.88 178.50,23.82 C178.39,23.80 178.34,23.77 178.36,23.74 C178.38,23.71 181.19,20.84 181.22,20.78 C181.22,20.78 179.03,23.05 179.03,23.05 C179.03,23.05 181.78,19.94 181.78,19.94 C181.78,19.94 180.87,20.36 180.87,20.36 C180.87,20.36 182.03,18.89 182.03,18.89 C182.03,18.89 183.93,16.94 183.93,16.94 C183.93,16.94 182.30,18.22 182.30,18.22 C182.30,18.22 185.23,15.71 185.23,15.71 C185.36,15.58 185.47,15.49 185.46,15.52 C185.45,15.53 185.44,15.56 185.41,15.61" fill="none" stroke="rgb(255, 255, 255)" stroke-width="1.06" stroke-opacity="1.00" stroke-linejoin="round"/>
<path d="M183.75,17.90 C183.75,17.90 184.28,17.48 184.28,17.48 C184.28,17.48 180.30,22.31 180.30,22.31 C180.30,22.31 184.01,18.25 184.01,18.25 C184.01,18.25 179.62,24.09 179.62,24.09 C179.62,24.09 184.66,18.93 184.66,18.93 C184.66,18.93 180.94,23.63 180.94,23.63 C180.94,23.63 184.02,20.44 184.02,20.44 C184.02,20.44 182.13,23.14 182.13,23.14 C182.13,23.14 184.08,21.58 184.08,21.58 C184.08,21.58 183.60,22.05 183.60,22.05 C183.60,22.05 183.52,22.04 183.52,22.04" fill="none" stroke="rgb(255, 255, 255)" stroke-width="1.06" stroke-opacity="1.00" stroke-linejoin="round"/>
<path d="M183.40,22.06 C183.40,22.06 183.45,22.20 183.45,22.20 C183.45,22.20 183.88,21.79 183.88,21.79" fill="none" stroke="rgb(255, 255, 255)" stroke-width="1.06" stroke-opacity="1.00" stroke-linejoin="round"/>
<path d="M183.09,19.50 C183.14,19.39 183.17,19.33 183.17,19.32 C183.24,19.20 185.20,16.85 185.42,16.29 C185.45,16.21 185.50,16.06 185.57,15.83 C185.55,15.85 185.53,15.88 185.50,15.91 C185.42,16.00 185.34,16.09 185.25,16.19 C185.22,16.22 185.20,16.26 185.17,16.29" fill="none" stroke="rgb(255, 255, 255)" stroke-width="1.06" stroke-opacity="1.00" stroke-linejoin="round"/>
<path d="M183.89,17.46 C183.89,17.46 183.79,17.51 183.79,17.51 C183.80,17.45 184.16,16.84 184.56,16.25 C184.76,15.97 185.00,15.62 185.01,15.57 C185.01,15.57 184.82,15.99 184.82,15.99" fill="none" stroke="rgb(255, 255, 255)" stroke-width="1.06" stroke-opacity="1.00" stroke-linejoin="round"/>
<path d="M183.91,16.93 C183.89,16.94 183.86,16.95 183.82,16.98 C183.71,17.06 183.42,17.25 183.32,17.29 C183.42,17.23 183.54,17.20 183.65,17.22 C183.67,17.22 183.69,17.23 183.71,17.24" fill="none" stroke="rgb(255, 255, 255)" stroke-width="1.06" stroke-opacity="1.00" stroke-linejoin="round"/>
<path d="M182.38,19.07 C182.31,19.05 182.23,18.97 182.18,18.84 C182.16,18.81 182.14,18.76 182.12,18.67 C181.95,18.77 181.85,18.83 181.83,18.84 C181.81,18.85 181.86,18.84 181.88,18.83" fill="none" stroke="rgb(255, 255, 255)" stroke-width="1.06" stroke-opacity="1.00" stroke-linejoin="round"/>
<path d="M181.79,18.80 C181.79,18.80 182.00,18.84 182.00,18.84" fill="none" stroke="rgb(255, 255, 255)" stroke-width="1.06" stroke-opacity="1.00" stroke-linejoin="round"/>
<path d="M183.66,17.18 C183.68,17.13 183.69,17.10 183.69,17.08 C183.70,17.06 183.70,17.03 183.70,16.99 C183.70,16.99 183.75,17.03 183.75,17.03" fill="none" stroke="rgb(255, 255, 255)" stroke-width="1.06" stroke-opacity="1.00" stroke-linejoin="round"/>
<path d="M183.64,16.87 C183.64,16.87 183.73,16.80 183.73,16.80 C183.73,16.80 183.75,16.66 183.75,16.66" fill="none" stroke="rgb(255, 255, 255)" stroke-width="1.06" stroke-opacity="1.00" stroke-linejoin="round"/>
<path d="M194.70,15.97 C194.70,15.97 194.77,15.88 194.77,15.88 C194.77,15.88 194.68,15.91 194.68,15.91" fill="none" stroke="rgb(255, 255, 255)" stroke-width="1.06" stroke-opacity="1.00" stroke-linejoin="round"/>
<path d="M209.56,24.18 C209.50,24.15 209.44,24.13 209.36,24.11 C209.29,24.10 209.10,24.07 208.81,24.02 C208.81,24.02 209.67,23.79 209.67,23.79 C209.67,23.79 208.16,23.95 208.16,23.95 C208.21,23.92 208.33,23.91 208.44,23.94 C208.49,23.95 208.58,23.98 208.71,24.02" fill="none" stroke="rgb(255, 255, 255)" stroke-width="1.06" stroke-opacity="1.00" stroke-linejoin="round"/>
<path d="M209.54,24.71 C209.54,24.71 210.56,24.64 210.56,24.64 C210.56,24.64 210.46,24.68 210.46,24.68" fill="none" stroke="rgb(255, 255, 255)" stroke-width="1.06" stroke-opacity="1.00" stroke-linejoin="round"/>
<path d="M212.30,27.56 C212.48,27.79 212.57,27.93 212.59,27.99 C212.60,28.05 213.11,28.43 213.20,28.91 C213.24,29.13 213.22,29.34 213.17,29.59 C213.17,29.59 213.12,29.62 213.12,29.62" fill="none" stroke="rgb(255, 255, 255)" stroke-width="1.06" stroke-opacity="1.00" stroke-linejoin="round"/>
<path d="M179.98,21.07 C180.26,20.87 180.50,20.75 180.56,20.69 C180.67,20.59 180.90,20.26 180.99,20.10 C180.85,20.14 180.68,20.15 180.76,19.90 C180.78,19.83 180.81,19.69 180.87,19.48 C180.81,19.52 180.77,19.56 180.76,19.57 C180.75,19.59 180.76,19.63 180.77,19.68" fill="none" stroke="rgb(255, 255, 255)" stroke-width="1.06" stroke-opacity="1.00" stroke-linejoin="round"/>
<path d="M180.15,21.67 C180.02,21.67 179.88,21.67 179.75,21.67 C178.89,21.66 178.39,21.65 177.55,21.62 C177.63,21.62 177.68,21.63 177.71,21.64 C177.74,21.66 177.78,21.71 177.84,21.78" fill="none" stroke="rgb(255, 255, 255)" stroke-width="1.06" stroke-opacity="1.00" stroke-linejoin="round"/>
<path d="M179.07,22.60 C179.07,22.60 179.21,22.65 179.21,22.65 C178.96,22.62 178.48,22.58 178.10,22.58 C177.22,22.59 170.78,22.73 170.60,22.76 C169.71,23.21 170.66,28.21 170.67,28.21 C170.76,28.09 170.83,27.79 170.87,27.66 C170.88,27.65 170.99,27.36 171.21,26.77 C171.24,26.67 171.26,26.62 171.26,26.61" fill="none" stroke="rgb(255, 255, 255)" stroke-width="1.06" stroke-opacity="1.00" stroke-linejoin="round"/>
<path d="M171.81,24.87 C171.69,24.16 172.64,23.36 173.09,23.58 C173.22,23.65 173.39,23.90 173.40,23.94 C173.40,23.94 170.87,23.80 170.87,23.80 C170.87,23.80 173.84,23.73 173.84,23.73 C173.78,23.73 173.73,23.72 173.70,23.72 C173.67,23.72 173.62,23.71 173.55,23.69" fill="none" stroke="rgb(255, 255, 255)" stroke-width="1.06" stroke-opacity="1.00" stroke-linejoin="round"/>
<path d="M169.79,23.80 C169.73,23.75 169.70,23.72 169.69,23.72 C169.66,23.71 169.69,23.78 169.69,23.80 C169.69,23.83 169.68,23.87 169.66,23.94" fill="none" stroke="rgb(255, 255, 255)" stroke-width="1.06" stroke-opacity="1.00" stroke-linejoin="round"/>
<path d="M169.13,24.73 C169.13,24.73 168.44,25.15 168.44,25.15 C168.49,25.06 168.53,24.98 168.56,24.93 C168.62,24.82 168.78,24.53 168.82,24.42 C168.71,24.54 168.65,24.61 168.62,24.64 C168.60,24.67 168.59,24.71 168.58,24.75 C168.58,24.75 168.61,24.80 168.61,24.80" fill="none" stroke="rgb(255, 255, 255)" stroke-width="1.06" stroke-opacity="1.00" stroke-linejoin="round"/>
<path d="M169.27,25.45 C169.38,25.47 169.45,25.48 169.48,25.49 C169.95,25.69 169.83,27.27 169.91,29.48 C169.92,29.81 169.89,30.69 169.91,31.12 C169.91,31.17 169.91,31.20 169.92,31.22" fill="none" stroke="rgb(255, 255, 255)" stroke-width="1.06" stroke-opacity="1.00" stroke-linejoin="round"/>
<path d="M169.24,26.34 C169.24,26.34 169.09,26.14 169.09,26.14 C169.09,26.14 169.00,26.15 169.00,26.15 C168.87,26.31 168.64,27.45 168.63,28.89 C168.63,29.55 168.64,30.47 168.66,31.64 C168.67,31.74 168.68,32.04 168.69,31.94" fill="none" stroke="rgb(255, 255, 255)" stroke-width="1.06" stroke-opacity="1.00" stroke-linejoin="round"/>
<path d="M168.75,27.34 C168.75,27.86 168.77,28.27 168.78,28.57 C168.86,30.06 169.13,32.21 169.49,34.36 C169.67,35.40 169.77,36.38 169.85,37.17 C169.87,37.36 169.90,37.58 169.94,37.82" fill="none" stroke="rgb(255, 255, 255)" stroke-width="1.06" stroke-opacity="1.00" stroke-linejoin="round"/>
<path d="M170.74,33.28 C170.74,33.30 170.74,33.24 170.74,33.22 C170.74,32.92 170.71,32.77 170.66,32.69 C170.49,33.83 171.54,42.15 171.71,44.40 C171.74,44.81 171.81,45.76 171.85,45.89 C171.85,45.89 171.91,45.89 171.91,45.89 C171.91,45.89 171.94,45.82 171.94,45.82" fill="none" stroke="rgb(255, 255, 255)" stroke-width="1.06" stroke-opacity="1.00" stroke-linejoin="round"/>
<path d="M171.71,34.38 C171.71,34.38 171.63,34.29 171.63,34.29 C171.62,34.67 172.41,40.01 172.88,44.10 C172.93,44.48 172.97,44.80 173.02,45.07 C173.02,45.07 173.07,45.08 173.07,45.08 C173.11,44.99 173.13,44.93 173.15,44.89 C173.16,44.86 173.17,44.80 173.18,44.73" fill="none" stroke="rgb(255, 255, 255)" stroke-width="1.06" stroke-opacity="1.00" stroke-linejoin="round"/>
<path d="M172.92,35.51 C172.93,35.57 172.94,35.63 172.95,35.69 C173.08,36.33 173.89,41.16 174.04,42.99 C174.06,43.17 174.08,43.61 174.12,43.81 C174.12,43.81 174.16,43.85 174.16,43.85" fill="none" stroke="rgb(255, 255, 255)" stroke-width="1.06" stroke-opacity="1.00" stroke-linejoin="round"/>
<path d="M174.54,37.30 C174.57,37.36 174.60,37.43 174.62,37.51 C174.77,38.01 174.96,39.00 175.05,39.85 C175.11,40.44 175.11,40.89 175.08,40.96 C175.08,40.96 175.00,40.98 175.00,40.98 C175.00,40.98 174.94,40.93 174.94,40.93" fill="none" stroke="rgb(255, 255, 255)" stroke-width="1.06" stroke-opacity="1.00" stroke-linejoin="round"/>
<path d="M171.77,36.08 C171.77,36.09 171.79,36.13 171.84,36.20 C171.93,36.32 172.07,36.52 172.28,36.80 C172.33,36.87 172.37,36.92 172.39,36.94" fill="none" stroke="rgb(255, 255, 255)" stroke-width="1.06" stroke-opacity="1.00" stroke-linejoin="round"/>
<path d="M172.29,36.70 C172.31,36.68 172.41,36.69 172.51,36.74 C172.53,36.75 172.57,36.78 172.62,36.82" fill="none" stroke="rgb(255, 255, 255)" stroke-width="1.06" stroke-opacity="1.00" stroke-linejoin="round"/>
<path d="M200.17,53.01 C200.19,53.04 200.23,53.08 200.22,53.22 C200.22,53.43 200.20,53.74 200.17,54.14 C200.17,54.26 200.16,54.34 200.15,54.40" fill="none" stroke="rgb(255, 255, 255)" stroke-width="1.06" stroke-opacity="1.00" stroke-linejoin="round"/>
<path d="M201.14,51.54 C201.14,51.54 202.22,51.45 202.22,51.45 C202.22,51.45 202.16,51.37 202.16,51.37" fill="none" stroke="rgb(255, 255, 255)" stroke-width="1.06" stroke-opacity="1.00" stroke-linejoin="round"/>
<path d="M204.53,50.77 C204.63,50.87 204.68,50.92 204.69,50.96 C204.70,50.98 204.71,51.04 204.73,51.14 C204.73,51.14 205.84,51.51 205.84,51.51 C205.84,51.51 205.26,51.31 205.26,51.31 C205.26,51.31 205.45,51.43 205.45,51.43" fill="none" stroke="rgb(255, 255, 255)" stroke-width="1.06" stroke-opacity="1.00" stroke-linejoin="round"/>
<path d="M205.72,51.87 C205.73,51.87 205.73,51.88 205.73,51.92 C205.74,52.20 205.74,52.34 205.75,52.36 C205.75,52.42 205.77,52.50 205.80,52.60 C205.80,52.60 205.77,52.55 205.77,52.55" fill="none" stroke="rgb(255, 255, 255)" stroke-width="1.06" stroke-opacity="1.00" stroke-linejoin="round"/>
<path d="M205.94,54.70" fill="none" stroke="rgb(255, 255, 255)" stroke-width="1.06" stroke-opacity="1.00" stroke-linejoin="round"/>
<path d="M205.70,54.78" fill="none" stroke="rgb(255, 255, 255)" stroke-width="1.06" stroke-opacity="1.00" stroke-linejoin="round"/>
<path d="M214.24,52.43 C214.24,52.43 214.28,52.38 214.28,52.38 C214.21,52.15 214.18,52.10 214.19,52.10 C214.23,51.89 214.22,51.49 214.22,51.43 C214.22,51.43 214.46,51.75 214.46,51.75" fill="none" stroke="rgb(255, 255, 255)" stroke-width="1.06" stroke-opacity="1.00" stroke-linejoin="round"/>
<path d="M213.17,48.57 C213.17,48.57 213.27,48.74 213.27,48.74 C213.27,48.74 213.20,47.74 213.20,47.74 C213.20,47.74 213.26,47.80 213.26,47.80" fill="none" stroke="rgb(255, 255, 255)" stroke-width="1.06" stroke-opacity="1.00" stroke-linejoin="round"/>
<path d="M212.27,46.92 C212.27,46.92 212.32,46.98 212.32,46.98 C212.32,46.98 212.36,45.91 212.36,45.91 C212.36,45.91 212.32,46.06 212.32,46.06" fill="none" stroke="rgb(255, 255, 255)" stroke-width="1.06" stroke-opacity="1.00" stroke-linejoin="round"/>
<path d="M212.36,46.03 C212.36,46.03 212.41,46.00 212.41,46.00 C212.43,45.89 212.40,45.83 212.39,45.84 C212.38,45.86 212.37,45.87 212.37,45.89" fill="none" stroke="rgb(255, 255, 255)" stroke-width="1.06" stroke-opacity="1.00" stroke-linejoin="round"/>
<path d="M210.13,42.23 C210.13,42.23 210.16,41.72 210.16,41.72 C210.28,41.63 210.25,41.08 210.25,41.07 C210.23,41.03 210.22,41.00 210.20,40.97" fill="none" stroke="rgb(255, 255, 255)" stroke-width="1.06" stroke-opacity="1.00" stroke-linejoin="round"/>
<path d="M210.78,39.83 C210.78,39.83 210.89,39.84 210.89,39.84 C210.89,39.84 211.33,39.55 211.33,39.55 C211.33,39.55 211.36,39.31 211.36,39.31" fill="none" stroke="rgb(255, 255, 255)" stroke-width="1.06" stroke-opacity="1.00" stroke-linejoin="round"/>
<path d="M211.30,39.35 C211.30,39.35 211.30,39.42 211.30,39.42" fill="none" stroke="rgb(255, 255, 255)" stroke-width="1.06" stroke-opacity="1.00" stroke-linejoin="round"/>
<path d="M211.13,42.81 C211.13,42.81 211.21,42.80 211.21,42.80 C211.21,42.80 211.27,42.88 211.27,42.88 C211.27,42.88 210.94,44.81 210.94,44.81" fill="none" stroke="rgb(255, 255, 255)" stroke-width="1.06" stroke-opacity="1.00" stroke-linejoin="round"/>
<path d="M211.42,43.45 C211.42,43.45 211.43,42.86 211.43,42.86 C211.43,42.86 211.26,42.74 211.26,42.74" fill="none" stroke="rgb(255, 255, 255)" stroke-width="1.06" stroke-opacity="1.00" stroke-linejoin="round"/>
<path d="M211.53,42.76 C211.53,42.76 211.59,42.78 211.59,42.78 C211.53,42.80 211.49,42.81 211.48,42.82 C211.46,42.83 211.45,42.85 211.44,42.87" fill="none" stroke="rgb(255, 255, 255)" stroke-width="1.06" stroke-opacity="1.00" stroke-linejoin="round"/>
<path d="M215.76,57.16 C216.78,57.77 220.34,63.36 220.26,63.73 C220.26,63.75 220.13,64.18 220.13,64.21" fill="none" stroke="rgb(255, 255, 255)" stroke-width="1.06" stroke-opacity="1.00" stroke-linejoin="round"/>
<path d="M217.18,58.75 C217.25,58.78 217.29,58.80 217.31,58.80 C217.33,58.81 217.35,58.81 217.38,58.80 C217.40,58.87 217.42,58.91 217.42,58.92 C217.42,58.94 217.42,58.96 217.41,58.98" fill="none" stroke="rgb(255, 255, 255)" stroke-width="1.06" stroke-opacity="1.00" stroke-linejoin="round"/>
<path d="M221.34,64.55 C221.34,64.55 221.25,64.54 221.25,64.54" fill="none" stroke="rgb(255, 255, 255)" stroke-width="1.06" stroke-opacity="1.00" stroke-linejoin="round"/>
<path d="M222.51,66.52 C222.51,66.52 222.44,66.59 222.44,66.59" fill="none" stroke="rgb(255, 255, 255)" stroke-width="1.06" stroke-opacity="1.00" stroke-linejoin="round"/>
<path d="M223.27,70.58" fill="none" stroke="rgb(255, 255, 255)" stroke-width="1.06" stroke-opacity="1.00" stroke-linejoin="round"/>
<path d="M223.56,74.26 C223.13,74.67 221.29,73.97 220.37,74.25 C220.00,74.36 219.26,74.58 219.24,74.58 C219.24,74.58 219.61,74.54 219.61,74.54" fill="none" stroke="rgb(255, 255, 255)" stroke-width="1.06" stroke-opacity="1.00" stroke-linejoin="round"/>
<path d="M216.48,73.28 C216.48,73.28 215.56,73.22 215.56,73.22 C215.56,73.22 215.50,73.13 215.50,73.13 C215.50,73.13 215.56,73.14 215.56,73.14" fill="none" stroke="rgb(255, 255, 255)" stroke-width="1.06" stroke-opacity="1.00" stroke-linejoin="round"/>
<path d="M208.34,74.31 C208.34,74.31 208.38,74.47 208.38,74.47 C208.01,74.50 203.75,74.39 202.60,74.41 C202.00,74.40 201.79,74.43 201.71,74.52 C201.71,74.52 201.71,74.60 201.71,74.60" fill="none" stroke="rgb(255, 255, 255)" stroke-width="1.06" stroke-opacity="1.00" stroke-linejoin="round"/>
<path d="M169.63,36.25 C169.51,36.47 169.44,36.89 169.34,37.96 C169.13,40.42 167.81,55.74 167.83,56.27 C167.84,56.35 167.84,56.44 167.84,56.55 C167.84,56.55 167.83,56.48 167.83,56.48" fill="none" stroke="rgb(255, 255, 255)" stroke-width="2.50" stroke-opacity="1.00" stroke-linejoin="round"/>
<path d="M171.17,37.25 C171.17,37.25 171.07,37.18 171.07,37.18 C170.99,37.40 170.85,39.31 170.92,41.96 C171.03,44.93 171.26,51.18 171.26,52.08 C171.25,53.06 171.14,54.62 171.07,55.56 C171.06,55.75 171.06,55.88 171.08,55.95" fill="none" stroke="rgb(255, 255, 255)" stroke-width="2.50" stroke-opacity="1.00" stroke-linejoin="round"/>
<path d="M167.94,27.15 C167.97,27.48 167.72,32.02 167.71,32.07 C167.26,34.92 167.36,36.12 167.40,36.34 C167.40,36.34 167.52,36.15 167.52,36.15" fill="none" stroke="rgb(255, 255, 255)" stroke-width="2.50" stroke-opacity="1.00" stroke-linejoin="round"/>
<path d="M167.03,47.05 C166.93,47.22 166.86,47.46 166.62,48.36 C164.81,55.35 163.31,57.97 163.08,58.42 C162.60,59.37 162.28,60.58 162.23,60.92" fill="none" stroke="rgb(255, 255, 255)" stroke-width="2.50" stroke-opacity="1.00" stroke-linejoin="round"/>
<path d="M205.84,73.13 C205.58,73.61 204.15,75.58 203.03,76.81 C201.61,78.45 200.53,80.37 199.17,84.43 C198.43,86.81 196.65,91.01 196.21,94.48 C195.94,96.73 196.46,102.61 197.07,104.52 C199.06,110.47 201.39,119.50 201.62,123.67 C201.78,126.51 201.04,129.18 199.60,130.31 C198.89,130.85 193.65,131.31 193.57,131.34 C193.57,131.34 193.53,131.38 193.53,131.38" fill="none" stroke="rgb(255, 255, 255)" stroke-width="2.50" stroke-opacity="1.00" stroke-linejoin="round"/>
<path d="M201.07,127.21 C201.09,127.19 201.25,127.46 201.43,127.81 C201.98,128.95 204.93,141.99 204.51,145.88 C204.30,147.66 202.37,152.58 202.35,152.64 C202.26,152.89 199.47,159.36 197.47,160.99 C196.75,161.58 194.21,163.84 192.15,165.02 C191.92,165.15 190.76,166.13 190.26,166.53 C190.13,166.64 190.04,166.71 189.99,166.74" fill="none" stroke="rgb(255, 255, 255)" stroke-width="2.50" stroke-opacity="1.00" stroke-linejoin="round"/>
<path d="M201.71,157.05 C201.71,157.11 201.64,157.31 201.61,157.40 C200.90,160.18 197.72,165.64 196.88,166.62 C194.89,168.92 192.37,174.04 192.04,174.43 C189.28,177.58 184.17,182.22 183.81,182.54 C181.49,184.59 176.07,186.99 172.96,187.30 C171.19,187.46 163.84,186.46 162.90,186.67 C162.85,186.68 162.78,186.71 162.69,186.76" fill="none" stroke="rgb(255, 255, 255)" stroke-width="2.50" stroke-opacity="1.00" stroke-linejoin="round"/>
<path d="M177.45,187.39 C177.41,187.57 177.34,187.72 177.24,187.84 C176.01,189.49 171.67,191.52 166.26,192.81 C164.63,193.20 160.69,194.62 159.02,195.23 C158.16,195.57 152.87,198.61 150.54,199.21 C146.93,200.16 140.83,202.40 135.35,202.86 C134.28,202.96 127.39,203.31 123.11,202.14 C119.20,200.99 111.33,198.25 111.31,197.82 C111.34,197.57 119.12,194.80 124.78,192.26 C125.27,192.04 125.91,191.84 125.98,191.81" fill="none" stroke="rgb(255, 255, 255)" stroke-width="2.50" stroke-opacity="1.00" stroke-linejoin="round"/>
<path d="M118.43,197.48 C118.34,197.42 117.56,196.81 117.01,196.68 C115.91,196.44 114.51,196.86 114.30,197.00 C114.37,197.14 118.31,198.42 119.60,198.84 C122.18,199.66 122.28,199.67 122.45,199.65 C122.43,199.58 122.41,199.54 122.38,199.51 C122.35,199.48 122.27,199.42 122.15,199.33" fill="none" stroke="rgb(255, 255, 255)" stroke-width="2.50" stroke-opacity="1.00" stroke-linejoin="round"/>
<path d="M130.25,200.78 C130.54,200.78 130.76,200.79 130.92,200.79 C137.11,201.06 140.71,200.46 144.98,198.38 C146.53,197.59 148.89,196.36 149.71,195.91 C149.71,195.91 136.46,199.87 136.46,199.87 C136.71,199.89 149.11,196.30 149.94,196.00 C150.64,195.74 156.24,192.66 158.36,192.45 C158.47,192.44 158.55,192.44 158.61,192.45 C158.61,192.45 145.07,198.22 145.07,198.22 C145.19,198.18 152.85,194.69 157.89,193.50 C161.80,192.53 165.30,190.40 165.56,190.31 C160.84,193.61 149.03,197.57 148.75,197.67 C151.30,196.80 160.25,192.48 160.85,192.19 C164.23,190.59 175.09,188.17 175.17,188.07 C175.07,187.98 172.53,188.57 171.54,188.76 C167.33,189.58 165.68,189.73 165.29,189.63 C165.40,189.65 165.46,189.67 165.49,189.67 C165.51,189.68 165.54,189.69 165.56,189.70" fill="none" stroke="rgb(255, 255, 255)" stroke-width="2.50" stroke-opacity="1.00" stroke-linejoin="round"/>
<path d="M167.32,188.19 C167.42,188.09 168.08,187.70 168.59,187.40 C170.42,186.27 178.71,182.28 181.88,179.80 C182.24,179.52 182.98,178.90 183.16,178.76 C183.16,178.76 175.09,184.88 175.09,184.88 C175.09,184.88 185.71,176.71 185.71,176.71 C185.71,176.71 178.29,184.53 178.29,184.53 C180.94,184.11 191.62,168.02 193.63,166.42 C193.63,166.42 192.33,169.95 192.33,169.95 C193.12,169.61 198.16,163.57 198.54,162.34 C198.55,162.31 198.56,162.26 198.57,162.18 C198.39,162.14 196.79,163.58 195.94,164.70 C194.74,166.30 188.48,176.56 186.22,178.45 C185.21,179.28 184.74,179.04 184.59,178.91 C184.59,178.91 188.87,170.30 188.87,170.30 C188.42,170.58 183.96,176.25 182.96,177.36 C182.86,177.46 182.78,177.55 182.71,177.61 C182.71,177.61 182.66,177.55 182.66,177.55" fill="none" stroke="rgb(255, 255, 255)" stroke-width="2.50" stroke-opacity="1.00" stroke-linejoin="round"/>
<path d="M193.97,163.47 C193.97,163.47 193.77,163.84 193.77,163.84 C193.83,163.79 193.96,163.65 194.02,163.56 C197.76,158.57 199.53,154.33 199.38,153.78 C199.38,153.78 194.16,160.39 194.16,160.39 C195.87,160.57 202.62,148.63 202.53,148.49 C202.53,148.49 195.50,158.94 195.50,158.94 C195.50,158.94 203.75,142.84 203.75,142.84 C203.75,142.84 196.41,152.72 196.41,152.72 C196.41,152.72 202.61,139.71 202.61,139.71 C202.61,139.71 195.97,154.38 195.97,154.38 C195.98,154.14 200.84,143.27 201.79,139.25 C202.02,138.23 202.23,137.15 202.24,136.97 C202.24,136.97 195.67,150.90 195.67,150.90 C195.67,150.80 199.72,140.10 200.52,135.61 C200.87,133.57 200.87,132.96 200.85,132.91 C200.85,132.91 195.41,147.68 195.41,147.68 C195.41,147.68 200.07,132.22 200.07,132.22 C200.07,132.22 196.83,139.51 196.83,139.51 C196.83,139.51 199.53,130.00 199.53,130.00 C199.53,130.00 195.31,138.96 195.31,138.96 C195.31,138.96 196.14,133.84 196.14,133.84 C196.14,133.84 195.12,141.34 195.12,141.34 C195.12,141.34 195.23,131.73 195.23,131.73 C195.23,131.73 196.81,136.43 196.81,136.43 C196.81,136.43 194.97,132.95 194.97,132.95 C194.97,132.95 194.88,136.35 194.88,136.35 C194.62,136.25 194.48,136.10 194.39,135.82 C194.35,135.71 194.32,135.61 194.29,135.50" fill="none" stroke="rgb(255, 255, 255)" stroke-width="2.50" stroke-opacity="1.00" stroke-linejoin="round"/>
<path d="M199.47,128.96 C199.47,128.96 199.33,129.42 199.33,129.42 C199.33,129.42 200.12,121.39 200.12,121.39 C200.12,121.39 196.37,130.57 196.37,130.57 C196.36,130.40 199.01,122.11 199.21,119.30 C199.32,117.71 199.23,116.95 199.18,116.85 C199.18,116.85 194.20,131.52 194.20,131.52 C194.01,131.34 196.67,121.51 196.97,118.41 C197.22,115.71 197.04,112.36 196.86,111.93 C196.64,112.39 194.80,121.79 192.62,128.16 C192.59,128.26 192.55,128.37 192.52,128.47 C192.57,128.27 196.18,118.04 197.47,112.24 C197.58,111.72 197.78,110.62 197.79,110.56 C197.79,110.56 195.13,123.07 195.13,123.07 C195.13,123.07 198.17,112.54 198.17,112.54 C198.17,112.54 197.51,118.39 197.51,118.39 C197.35,118.04 197.53,112.34 197.23,110.19 C197.08,109.18 196.24,106.53 195.96,106.26 C195.96,106.26 191.84,121.08 191.84,121.08 C191.84,121.10 193.50,115.41 193.99,112.72 C194.99,107.18 194.98,101.37 194.90,101.10 C194.90,101.10 192.59,123.19 192.59,123.19 C192.52,123.04 194.77,110.00 194.60,103.68 C194.45,98.94 193.34,93.21 193.36,93.09 C193.87,93.98 194.66,102.19 194.06,106.92 C193.38,111.71 190.49,120.32 189.73,120.88 C189.62,120.59 192.50,109.18 192.59,105.41 C192.59,105.27 192.59,105.09 192.59,104.86 C192.49,105.10 190.78,112.31 190.65,112.83 C190.57,113.15 190.44,113.76 190.24,114.65" fill="none" stroke="rgb(255, 255, 255)" stroke-width="2.50" stroke-opacity="1.00" stroke-linejoin="round"/>
<path d="M187.89,115.00 C187.76,114.85 187.70,114.32 187.96,113.48 C190.72,105.04 194.60,91.69 194.94,91.33 C195.98,93.73 189.46,107.15 189.06,107.74 C188.77,107.19 192.89,94.68 193.58,88.95 C193.72,87.79 193.80,85.81 193.78,85.69 C193.72,85.83 190.05,99.29 188.50,102.44 C188.41,102.64 188.28,102.85 188.12,103.10 C188.19,102.69 193.29,88.87 193.96,83.61 C194.07,82.71 194.14,81.49 194.15,81.09 C191.73,85.44 189.97,104.64 190.66,106.23 C192.65,105.07 191.14,95.88 190.94,95.05 C190.94,95.05 192.02,104.49 192.02,104.49 C191.27,103.70 189.67,93.04 189.83,89.53 C189.99,86.46 191.43,83.52 191.71,83.24 C191.71,83.24 187.34,98.58 187.34,98.58 C187.34,98.58 190.79,84.54 190.79,84.54 C190.79,84.54 191.02,86.36 191.02,86.36 C191.02,86.36 196.25,78.50 196.25,78.50 C196.25,78.50 195.29,90.99 195.29,90.99 C195.29,90.99 200.45,72.53 200.45,72.53 C200.45,72.53 198.02,79.74 198.02,79.74 C198.02,79.74 201.28,74.57 201.28,74.57 C201.28,74.57 199.89,78.84 199.89,78.84 C199.89,78.84 202.09,74.63 202.09,74.63 C202.09,74.63 200.95,75.90 200.95,75.90" fill="none" stroke="rgb(255, 255, 255)" stroke-width="2.50" stroke-opacity="1.00" stroke-linejoin="round"/>
<path d="M150.53,152.92 C150.50,153.08 150.46,153.21 150.41,153.33 C150.29,153.65 149.66,155.31 149.40,157.05 C149.29,157.71 147.22,164.08 147.22,164.08 C146.86,166.09 144.11,170.46 143.82,170.96 C142.83,172.70 140.64,175.07 140.07,175.73 C139.65,176.21 137.63,178.82 137.14,179.44 C136.79,179.88 136.44,180.32 136.09,180.77" fill="none" stroke="rgb(255, 255, 255)" stroke-width="2.50" stroke-opacity="1.00" stroke-linejoin="round"/>
<path d="M145.09,152.27 C144.82,152.61 144.52,153.02 144.27,153.44 C141.89,157.58 135.84,164.91 133.25,168.37 C129.81,172.30 121.47,177.54 118.38,179.17 C116.66,180.00 107.15,182.82 106.06,183.09 C105.93,183.12 95.60,184.36 93.67,184.28 C91.79,184.18 81.39,181.89 80.28,181.43 C77.46,180.27 73.20,177.11 72.92,176.71 C73.48,176.83 84.20,179.56 84.76,179.82 C85.06,179.97 85.43,180.79 85.62,180.92 C84.78,179.18 80.01,178.51 79.90,178.62 C80.39,180.31 94.76,181.95 95.82,181.85 C95.82,181.85 90.18,181.64 90.18,181.64 C91.26,181.56 102.26,181.94 104.04,181.18 C104.66,180.90 105.01,180.65 105.22,180.33" fill="none" stroke="rgb(255, 255, 255)" stroke-width="2.50" stroke-opacity="1.00" stroke-linejoin="round"/>
<path d="M95.06,181.16 C95.21,181.22 95.35,181.27 95.54,181.29 C96.45,181.36 100.84,181.24 104.19,180.94 C107.08,180.67 114.86,177.30 116.57,176.10 C117.59,175.37 118.47,174.45 118.48,174.27 C118.47,174.23 118.46,174.15 118.42,174.02" fill="none" stroke="rgb(255, 255, 255)" stroke-width="2.50" stroke-opacity="1.00" stroke-linejoin="round"/>
<path d="M106.74,179.40 C106.74,179.40 106.76,179.53 106.76,179.53 C106.92,179.62 107.13,179.65 107.49,179.58 C109.41,179.18 114.10,178.41 115.16,178.15 C118.12,177.41 126.24,171.75 126.75,171.40 C127.22,171.08 129.24,169.69 129.37,169.34 C129.37,169.34 128.92,168.96 128.92,168.96" fill="none" stroke="rgb(255, 255, 255)" stroke-width="2.50" stroke-opacity="1.00" stroke-linejoin="round"/>
<path d="M119.48,175.44 C119.48,175.44 119.48,175.51 119.48,175.51 C119.65,175.41 122.70,173.08 124.71,171.66 C130.45,167.60 140.08,157.01 140.42,156.98 C140.27,157.66 130.83,167.62 128.69,169.21 C128.28,169.51 127.54,170.01 127.34,170.12 C126.90,170.35 126.50,170.49 126.46,170.45" fill="none" stroke="rgb(255, 255, 255)" stroke-width="2.50" stroke-opacity="1.00" stroke-linejoin="round"/>
<path d="M147.65,151.21 C147.72,151.25 148.24,151.21 148.59,151.35 C148.63,151.37 148.72,151.41 148.85,151.48 C148.85,151.48 149.16,151.53 149.16,151.53" fill="none" stroke="rgb(255, 255, 255)" stroke-width="2.50" stroke-opacity="1.00" stroke-linejoin="round"/>
<path d="M148.77,151.71 C148.77,151.71 148.75,151.89 148.75,151.89" fill="none" stroke="rgb(255, 255, 255)" stroke-width="2.50" stroke-opacity="1.00" stroke-linejoin="round"/>
<path d="M34.03,139.94 C34.15,140.22 34.41,140.80 34.44,140.91 C34.57,141.69 40.05,144.92 40.41,145.13 C43.73,147.10 51.85,153.23 52.11,153.31 C51.73,152.47 46.14,147.88 42.54,145.62 C42.00,145.29 36.92,142.12 36.13,140.77 C35.99,140.57 35.83,140.35 35.72,139.85 C35.72,139.85 44.03,134.94 44.03,134.94 C41.86,136.49 39.65,142.27 40.21,142.62 C40.21,142.62 36.80,139.33 36.80,139.33 C36.96,140.62 42.26,144.78 43.25,145.01 C43.36,145.04 43.48,145.03 43.63,144.99 C43.63,144.99 41.25,141.05 41.25,141.05 C41.25,141.05 42.90,141.99 42.90,141.99 C42.90,141.99 40.87,140.71 40.87,140.71 C40.85,140.95 41.80,142.22 41.94,142.53 C41.95,142.56 41.95,142.58 41.94,142.57 C41.94,142.57 41.86,142.48 41.86,142.48" fill="none" stroke="rgb(255, 255, 255)" stroke-width="2.50" stroke-opacity="1.00" stroke-linejoin="round"/>
<path d="M33.59,140.50 C33.59,140.50 33.41,140.27 33.41,140.27 C33.41,140.27 33.76,140.93 33.76,140.93 C33.54,140.51 41.74,146.79 45.38,149.95 C47.11,151.47 55.08,161.82 56.86,163.83 C57.62,164.68 59.44,166.51 60.35,167.38 C60.69,167.70 61.02,167.97 61.15,168.07" fill="none" stroke="rgb(255, 255, 255)" stroke-width="2.50" stroke-opacity="1.00" stroke-linejoin="round"/>
<path d="M41.88,147.61 C42.04,147.82 42.15,147.96 42.20,148.04 C42.32,148.22 44.93,152.71 47.02,154.28 C50.31,156.75 56.50,165.06 63.53,170.11 C66.37,172.13 69.66,173.87 71.23,174.47 C72.50,174.95 73.37,175.14 73.68,175.17 C73.68,175.17 73.90,175.05 73.90,175.05" fill="none" stroke="rgb(255, 255, 255)" stroke-width="2.50" stroke-opacity="1.00" stroke-linejoin="round"/>
<path d="M47.95,156.06 C48.10,156.34 48.20,156.53 48.25,156.63 C49.27,158.81 52.78,163.16 55.01,164.52 C59.03,166.94 63.58,171.72 66.80,173.95 C67.96,174.74 70.69,176.22 71.53,176.67 C72.57,177.22 74.04,177.99 74.56,178.21 C74.76,178.29 74.96,178.37 75.16,178.45" fill="none" stroke="rgb(255, 255, 255)" stroke-width="2.50" stroke-opacity="1.00" stroke-linejoin="round"/>
<path d="M42.86,131.44 C42.86,131.38 42.85,131.33 42.82,131.29 C42.67,131.02 41.28,129.16 40.09,128.06 C39.03,127.09 33.76,125.19 33.27,124.73 C33.48,124.55 37.74,122.82 38.07,122.59 C38.37,122.37 42.44,119.45 43.46,119.38 C43.88,119.35 44.39,119.43 44.82,119.55 C44.82,119.55 37.05,123.82 37.05,123.82 C37.49,124.96 41.81,124.79 41.80,124.77 C41.79,124.76 41.68,124.73 41.45,124.69 C41.40,124.68 41.35,124.67 41.31,124.67" fill="none" stroke="rgb(255, 255, 255)" stroke-width="2.50" stroke-opacity="1.00" stroke-linejoin="round"/>
<path d="M39.66,122.59 C40.03,122.40 40.72,122.06 41.09,121.89 C42.31,121.37 44.53,122.42 45.53,124.37 C46.64,126.59 47.29,131.23 47.38,133.91 C47.59,133.50 47.72,133.26 47.77,133.17 C47.82,133.08 47.85,133.02 47.88,132.99" fill="none" stroke="rgb(255, 255, 255)" stroke-width="2.50" stroke-opacity="1.00" stroke-linejoin="round"/>
<path d="M40.69,112.30 C40.61,112.28 40.41,112.14 40.17,111.91 C38.38,110.19 35.31,104.81 33.81,102.24 C32.26,99.47 28.75,90.83 28.63,86.03 C28.57,83.29 29.02,77.78 29.02,77.51 C29.49,78.70 31.80,81.80 32.52,82.55 C33.43,83.46 37.79,85.93 38.45,86.25 C38.76,86.41 40.32,88.25 40.28,88.46 C40.28,88.46 40.15,88.57 40.15,88.57" fill="none" stroke="rgb(255, 255, 255)" stroke-width="2.50" stroke-opacity="1.00" stroke-linejoin="round"/>
<path d="M36.52,87.64 C36.52,87.64 36.54,87.65 36.57,87.67 C36.79,87.80 36.94,87.87 36.94,87.87 C35.89,87.07 32.21,84.20 31.62,83.57 C31.20,83.10 30.45,81.93 30.36,81.88 C30.36,81.88 32.25,92.95 32.25,92.95 C32.25,92.95 31.29,87.00 31.29,87.00 C31.29,87.00 31.58,92.75 31.58,92.75 C31.58,92.75 32.46,85.36 32.46,85.36 C32.46,85.36 34.04,87.82 34.04,87.82 C34.04,87.82 33.06,86.11 33.06,86.11 C33.06,86.11 36.49,101.12 36.49,101.12 C36.49,101.12 34.12,98.94 34.12,98.94 C34.12,98.94 35.71,102.50 35.71,102.50 C35.71,102.50 34.49,98.96 34.49,98.96 C34.49,98.96 36.56,103.21 36.56,103.21 C36.56,103.21 36.63,103.23 36.63,103.23 C36.63,103.23 36.62,102.99 36.62,102.99" fill="none" stroke="rgb(255, 255, 255)" stroke-width="2.50" stroke-opacity="1.00" stroke-linejoin="round"/>
<path d="M36.80,85.52 C36.80,85.52 37.56,85.91 37.56,85.91 C37.36,85.79 32.55,80.12 32.31,79.90 C30.16,78.06 29.12,76.86 28.99,76.70 C29.12,76.76 29.19,76.80 29.22,76.82 C29.25,76.83 29.28,76.85 29.29,76.87" fill="none" stroke="rgb(255, 255, 255)" stroke-width="2.50" stroke-opacity="1.00" stroke-linejoin="round"/>
<path d="M28.64,76.34 C28.64,76.34 28.69,76.53 28.69,76.53" fill="none" stroke="rgb(255, 255, 255)" stroke-width="2.50" stroke-opacity="1.00" stroke-linejoin="round"/>
<path d="M28.65,77.03 C28.59,77.10 28.55,77.15 28.54,77.18 C28.46,77.37 28.59,81.03 28.53,81.49 C28.53,81.49 28.70,81.54 28.70,81.54" fill="none" stroke="rgb(255, 255, 255)" stroke-width="2.50" stroke-opacity="1.00" stroke-linejoin="round"/>
<path d="M42.31,131.21 C42.31,131.21 42.34,131.09 42.34,131.09 C42.34,131.09 42.42,131.13 42.42,131.13 C42.90,131.96 41.88,134.70 40.75,135.74 C40.50,135.96 35.58,138.41 35.50,138.54 C35.44,138.67 35.47,139.26 35.48,139.48 C35.48,139.55 35.48,139.60 35.47,139.63" fill="none" stroke="rgb(255, 255, 255)" stroke-width="2.50" stroke-opacity="1.00" stroke-linejoin="round"/>
<path d="M46.26,154.69 C46.25,154.64 46.24,154.60 46.24,154.58 C46.24,154.56 46.23,154.52 46.23,154.47 C46.66,155.12 47.15,155.91 47.39,156.39 C47.62,156.89 47.97,157.66 48.11,157.85 C48.13,157.89 48.16,157.92 48.19,157.96" fill="none" stroke="rgb(255, 255, 255)" stroke-width="2.50" stroke-opacity="1.00" stroke-linejoin="round"/>
<path d="M52.41,164.08 C52.85,164.37 57.64,169.94 58.94,170.95 C59.71,171.54 68.16,177.70 69.05,178.17 C72.72,179.57 81.30,183.45 85.72,183.98 C85.94,184.01 88.12,184.01 88.72,184.00 C83.62,184.36 65.33,175.72 64.07,174.95 C61.12,173.12 56.11,166.01 56.02,165.74 C56.07,165.69 56.18,165.66 56.27,165.68 C56.30,165.69 56.34,165.70 56.40,165.72" fill="none" stroke="rgb(255, 255, 255)" stroke-width="2.50" stroke-opacity="1.00" stroke-linejoin="round"/>
<path d="M119.78,191.28 C119.79,191.29 119.64,191.57 119.54,191.69 C119.17,192.14 113.10,193.65 113.03,193.68 C107.80,196.08 103.02,196.86 100.04,196.92 C99.39,196.93 98.38,197.06 96.62,197.11 C96.41,197.11 95.62,197.19 95.06,197.36 C95.65,197.85 98.50,198.26 100.25,198.51 C101.83,198.77 110.14,201.37 113.56,202.06 C118.07,203.11 123.67,203.66 129.06,205.05 C130.45,205.39 131.97,205.63 133.78,205.83 C134.04,205.86 134.28,205.89 134.48,205.92" fill="none" stroke="rgb(255, 255, 255)" stroke-width="2.50" stroke-opacity="1.00" stroke-linejoin="round"/>
<path d="M105.06,198.09 C105.18,198.08 105.47,198.13 105.95,198.26 C106.69,198.47 111.76,200.33 113.13,200.73 C114.58,201.14 122.08,202.59 123.98,203.03 C123.74,202.95 123.45,202.87 123.13,202.78 C117.58,201.34 110.64,197.45 108.66,197.11 C108.04,197.01 106.11,196.82 105.81,196.79 C106.36,196.69 110.41,196.38 111.54,196.16 C112.18,196.02 118.83,194.43 119.38,194.36 C119.39,194.35 119.36,194.36 119.35,194.36 C119.32,194.37 119.28,194.39 119.23,194.43" fill="none" stroke="rgb(255, 255, 255)" stroke-width="2.50" stroke-opacity="1.00" stroke-linejoin="round"/>
<path d="M118.53,202.10 C118.68,202.20 118.78,202.28 118.83,202.32 C119.09,202.56 119.83,204.00 120.80,205.56 C121.67,206.93 126.69,211.42 127.13,211.78 C127.34,211.95 127.77,212.26 128.42,212.72" fill="none" stroke="rgb(255, 255, 255)" stroke-width="2.50" stroke-opacity="1.00" stroke-linejoin="round"/>
<path d="M139.42,201.41 C139.33,201.68 138.09,203.51 137.52,205.22 C137.47,205.36 136.39,208.35 136.59,210.25 C136.63,210.67 136.82,218.21 136.81,218.91 C136.80,219.45 136.78,219.99 136.77,220.53" fill="none" stroke="rgb(255, 255, 255)" stroke-width="2.50" stroke-opacity="1.00" stroke-linejoin="round"/>
<path d="M136.95,220.63 C136.89,220.64 136.76,220.64 136.41,220.59 C132.47,220.32 123.97,219.04 123.93,219.03 C123.74,218.99 123.24,218.88 123.10,218.90" fill="none" stroke="rgb(255, 255, 255)" stroke-width="2.50" stroke-opacity="1.00" stroke-linejoin="round"/>
<path d="M122.86,218.90 C122.82,218.77 123.04,217.10 123.07,216.67 C123.21,214.65 122.33,206.62 122.32,206.49 C122.31,206.40 122.29,206.24 122.25,206.00" fill="none" stroke="rgb(255, 255, 255)" stroke-width="2.50" stroke-opacity="1.00" stroke-linejoin="round"/>
<path d="M121.64,205.58 C121.64,205.62 121.68,206.13 121.65,206.58 C121.63,206.83 121.36,217.57 121.46,219.42 C121.49,220.05 121.40,221.34 121.39,221.78 C121.39,222.00 121.40,222.36 121.43,222.87" fill="none" stroke="rgb(255, 255, 255)" stroke-width="2.50" stroke-opacity="1.00" stroke-linejoin="round"/>
<path d="M121.63,219.97 C121.64,219.98 121.66,219.98 121.69,219.97 C121.88,219.93 122.56,219.60 122.79,219.48 C124.55,218.61 136.39,218.72 137.40,218.38 C137.14,218.32 136.98,218.29 136.91,218.28 C136.84,218.27 136.78,218.27 136.72,218.28" fill="none" stroke="rgb(255, 255, 255)" stroke-width="2.50" stroke-opacity="1.00" stroke-linejoin="round"/>
<path d="M135.19,218.98 C135.18,218.98 134.91,217.65 134.62,214.55 C133.60,203.54 133.49,201.79 133.44,201.32 C133.44,201.32 131.89,217.70 131.89,217.70 C131.89,217.70 134.07,205.25 134.07,205.25 C134.07,205.25 135.37,211.44 135.37,211.44 C136.52,209.05 134.55,203.38 134.41,203.04 C134.41,203.04 133.65,218.03 133.65,218.03 C133.75,214.88 133.72,209.18 133.08,206.47 C132.50,204.04 131.83,202.55 131.62,202.13 C131.62,202.13 130.70,217.14 130.70,217.14 C130.70,217.14 128.69,203.37 128.69,203.37 C128.69,203.37 128.65,216.70 128.65,216.70 C128.65,216.70 126.43,201.96 126.43,201.96 C126.43,201.96 124.87,217.76 124.87,217.76 C124.73,217.26 124.76,207.80 124.07,204.94 C123.96,204.46 123.83,204.15 123.61,203.66 C123.61,203.66 123.20,216.69 123.20,216.69 C123.46,213.77 123.49,210.58 123.32,209.01 C123.26,208.38 123.08,206.83 123.11,206.71 C123.11,206.71 123.18,206.68 123.18,206.68" fill="none" stroke="rgb(255, 255, 255)" stroke-width="2.50" stroke-opacity="1.00" stroke-linejoin="round"/>
<path d="M136.72,214.10 C136.79,214.10 136.84,214.11 136.88,214.13 C137.10,214.26 141.09,217.58 141.55,217.76 C144.88,218.97 145.64,219.75 147.71,221.38 C148.90,222.42 150.71,224.04 151.30,225.17 C152.11,226.78 153.04,231.19 152.79,232.00 C152.12,234.00 150.07,237.00 149.16,237.36 C148.47,237.60 145.01,236.78 141.81,235.32 C140.74,234.84 137.79,231.23 135.10,229.65 C132.22,228.00 128.46,227.69 126.86,227.76 C123.07,227.97 114.78,234.49 114.60,234.59 C113.33,235.30 111.94,235.78 111.66,235.72 C109.86,235.25 108.54,234.15 107.72,232.30 C106.97,230.59 107.61,226.21 108.35,225.37 C113.24,219.98 116.07,216.48 120.27,215.23 C122.13,214.69 123.26,214.64 123.53,214.65 C123.59,214.66 123.68,214.67 123.79,214.68" fill="none" stroke="rgb(255, 255, 255)" stroke-width="2.50" stroke-opacity="1.00" stroke-linejoin="round"/>
<path d="M119.52,218.04 C119.52,217.62 119.51,217.37 119.51,217.27 C119.50,217.11 119.45,217.03 119.38,216.96 C119.38,216.96 120.33,223.95 120.33,223.95 C120.33,223.95 119.89,217.76 119.89,217.76 C119.89,217.76 119.85,227.86 119.85,227.86 C118.97,228.06 118.33,226.13 118.15,224.88 C117.59,220.79 117.57,220.47 117.57,220.22 C117.95,221.46 117.39,229.70 116.73,231.09 C116.69,231.18 116.62,231.27 116.52,231.38 C116.52,231.38 117.70,218.87 117.70,218.87 C117.70,218.87 114.54,233.31 114.54,233.31 C114.54,233.31 115.67,218.85 115.67,218.85 C115.67,218.85 112.00,233.07 112.00,233.07 C112.00,233.07 113.64,221.44 113.64,221.44 C113.64,221.44 111.00,233.70 111.00,233.70 C111.00,233.70 111.48,223.34 111.48,223.34 C111.48,223.34 109.51,232.26 109.51,232.26 C109.51,232.26 110.12,224.64 110.12,224.64 C110.12,224.64 108.82,230.55 108.82,230.55 C108.82,230.55 109.90,225.52 109.90,225.52 C110.31,225.73 111.18,227.42 111.71,228.00 C112.33,228.65 113.84,229.01 114.54,228.69 C115.88,228.02 118.42,224.27 118.77,224.04 C118.77,224.04 119.91,225.97 119.91,225.97 C119.91,225.97 121.18,223.48 121.18,223.48 C121.18,223.48 120.28,227.01 120.28,227.01 C120.28,227.01 123.62,220.81 123.62,220.81 C123.62,220.81 124.34,226.67 124.34,226.67 C125.55,226.60 126.99,224.34 127.55,223.18 C128.21,221.80 128.73,219.95 128.71,219.91 C128.71,219.91 125.28,226.31 125.28,226.31 C125.28,226.31 124.42,223.70 124.42,223.70 C124.42,223.70 122.91,227.42 122.91,227.42 C122.91,227.42 126.22,221.47 126.22,221.47 C122.94,220.58 121.17,226.81 121.29,227.22 C122.13,226.76 123.42,224.83 125.11,221.86 C125.66,220.94 126.65,220.34 127.21,220.60 C127.92,220.96 133.61,226.04 134.28,225.91 C134.14,223.78 130.46,226.11 130.19,226.44 C130.19,226.44 126.83,224.75 126.83,224.75 C126.83,224.75 139.07,226.52 139.07,226.52 C139.07,226.52 126.74,226.65 126.74,226.65 C126.74,226.65 135.71,226.27 135.71,226.27 C135.71,226.27 128.16,226.32 128.16,226.32 C128.16,226.32 149.34,229.00 149.34,229.00 C149.34,229.00 138.39,228.22 138.39,228.22 C138.39,228.22 149.71,229.76 149.71,229.76 C149.71,229.76 148.58,226.69 148.58,226.69 C148.58,226.69 150.54,232.97 150.54,232.97 C150.54,232.97 149.80,226.71 149.80,226.71 C149.80,226.71 149.76,233.04 149.76,233.04 C149.76,233.04 149.84,227.19 149.84,227.19 C149.84,227.19 147.87,236.74 147.87,236.74 C147.87,236.74 148.03,226.46 148.03,226.46 C148.03,226.46 147.00,234.39 147.00,234.39 C147.00,234.39 145.80,224.30 145.80,224.30 C145.80,224.30 145.79,232.59 145.79,232.59 C145.79,232.59 144.14,225.57 144.14,225.57 C144.14,225.57 146.68,228.46 146.68,228.46 C146.68,228.46 144.91,223.27 144.91,223.27 C144.91,223.27 148.69,227.16 148.69,227.16 C148.86,224.89 138.51,217.13 137.26,216.33 C137.26,216.33 147.48,224.92 147.48,224.92 C147.48,224.92 140.21,217.75 140.21,217.75 C140.21,217.75 149.91,226.81 149.91,226.81 C149.91,226.81 141.80,219.58 141.80,219.58 C141.80,219.58 149.11,226.05 149.11,226.05 C148.70,225.85 139.33,219.37 135.53,217.45 C135.15,217.26 134.73,217.22 134.57,217.21 C134.57,217.21 144.60,227.32 144.60,227.32 C144.60,227.32 135.31,218.98 135.31,218.98 C140.13,225.89 145.06,227.98 145.32,228.00 C145.33,227.26 141.53,223.30 136.95,220.29 C134.38,218.61 133.20,218.59 132.88,218.77 C132.88,218.77 142.93,231.25 142.93,231.25 C142.93,231.25 130.01,220.50 130.01,220.50 C130.01,220.50 138.31,228.34 138.31,228.34 C138.31,228.34 129.06,221.36 129.06,221.36 C129.06,221.36 142.38,233.92 142.38,233.92 C142.38,233.92 136.99,229.03 136.99,229.03 C136.99,229.03 146.18,235.69 146.18,235.69 C146.18,235.69 145.50,234.31 145.50,234.31 C145.50,234.31 146.69,235.87 146.69,235.87 C146.69,235.87 142.92,231.20 142.92,231.20 C143.04,231.37 143.16,231.54 143.27,231.72 C143.32,231.79 143.37,231.86 143.42,231.95" fill="none" stroke="rgb(255, 255, 255)" stroke-width="2.50" stroke-opacity="1.00" stroke-linejoin="round"/>
<path d="M118.06,227.00 C118.02,227.24 118.01,227.38 118.06,227.44 C118.07,227.46 118.10,227.48 118.15,227.53 C118.56,227.59 121.34,226.09 121.85,226.85 C122.35,227.67 120.39,229.43 119.91,229.38 C119.91,229.38 124.04,227.80 124.04,227.80 C124.04,227.80 124.90,228.52 124.90,228.52" fill="none" stroke="rgb(255, 255, 255)" stroke-width="2.50" stroke-opacity="1.00" stroke-linejoin="round"/>
<path d="M128.55,228.67 C128.56,228.74 128.55,228.79 128.52,228.80 C128.49,228.82 123.69,229.85 123.02,230.06 C118.56,231.40 112.17,236.17 112.11,236.21 C112.11,236.21 113.39,235.82 113.39,235.82" fill="none" stroke="rgb(255, 255, 255)" stroke-width="2.50" stroke-opacity="1.00" stroke-linejoin="round"/>
<path d="M118.77,232.10 C118.77,232.10 118.81,232.04 118.81,232.04 C118.83,232.07 118.80,232.19 118.73,232.38 C118.40,233.14 115.65,236.33 115.17,236.52 C113.74,236.80 111.48,237.40 110.77,237.28 C110.04,237.15 106.89,234.45 105.94,232.73 C104.73,230.41 107.00,225.98 107.97,225.48 C108.17,225.38 109.02,225.10 109.48,224.95" fill="none" stroke="rgb(255, 255, 255)" stroke-width="2.50" stroke-opacity="1.00" stroke-linejoin="round"/>
<path d="M88.94,109.57 C88.96,109.60 88.99,109.62 89.20,109.73 C90.20,110.25 105.12,113.04 112.27,112.54 C118.30,112.05 122.02,112.31 123.13,112.18 C124.48,111.99 135.45,108.57 137.36,107.43 C138.18,106.94 143.72,102.98 145.38,100.93 C145.53,100.73 151.05,92.71 152.35,89.49 C154.17,85.15 155.22,81.58 155.62,80.13 C155.16,80.99 150.20,90.70 147.73,94.33 C144.61,99.03 138.86,107.77 136.59,109.59 C134.73,111.07 130.51,113.08 130.12,113.37 C130.45,113.30 141.30,107.21 142.71,105.68 C145.48,102.63 156.08,85.78 156.43,85.30 C156.52,85.17 156.83,84.75 156.88,84.62 C156.89,84.58 156.90,84.51 156.90,84.42" fill="none" stroke="rgb(255, 255, 255)" stroke-width="2.50" stroke-opacity="1.00" stroke-linejoin="round"/>
<path d="M162.40,59.12 C162.40,59.24 161.67,62.48 161.44,63.34 C161.10,64.52 157.63,71.14 156.22,74.82 C156.08,75.22 151.79,86.00 150.28,88.70 C148.62,91.51 145.91,96.10 143.71,99.37 C142.81,100.77 140.92,103.71 139.93,105.25 C139.72,105.58 139.54,105.86 139.41,106.09" fill="none" stroke="rgb(255, 255, 255)" stroke-width="2.50" stroke-opacity="1.00" stroke-linejoin="round"/>
<path d="M202.95,76.79 C202.85,76.88 202.62,77.17 202.34,77.57 C200.90,79.64 197.00,89.51 196.42,91.40 C195.44,94.68 195.29,100.54 195.70,102.21 C195.84,102.74 198.45,112.68 201.01,119.91 C201.61,121.65 201.20,125.25 201.15,126.05 C201.12,126.41 201.01,127.84 200.84,129.35 C200.81,129.60 200.79,129.77 200.77,129.87" fill="none" stroke="rgb(255, 255, 255)" stroke-width="2.50" stroke-opacity="1.00" stroke-linejoin="round"/>
<path d="M201.04,118.39 C201.08,118.53 201.13,118.72 201.21,119.13 C201.58,121.04 204.41,135.18 204.55,140.65 C204.56,141.33 204.50,142.11 204.30,143.00 C204.23,143.32 203.97,144.38 203.52,146.18 C203.43,146.55 203.36,146.82 203.32,146.98" fill="none" stroke="rgb(255, 255, 255)" stroke-width="2.50" stroke-opacity="1.00" stroke-linejoin="round"/>
<path d="M204.88,144.39 C204.90,144.52 204.91,144.61 204.91,144.66 C204.90,145.28 203.13,151.05 203.12,151.57 C203.11,153.72 202.65,156.60 202.13,157.78 C200.92,160.48 197.90,164.92 196.05,166.61 C195.55,167.06 194.54,167.79 193.01,168.84 C192.83,168.96 192.65,169.08 192.47,169.21" fill="none" stroke="rgb(255, 255, 255)" stroke-width="2.50" stroke-opacity="1.00" stroke-linejoin="round"/>
<path d="M204.43,146.53 C204.44,146.55 204.44,146.58 204.45,146.59 C204.49,146.71 204.50,146.84 204.49,147.07 C204.38,149.67 201.82,160.30 201.32,161.27 C201.07,161.75 198.88,164.59 198.41,165.21 C197.74,166.15 196.81,167.43 196.47,167.88" fill="none" stroke="rgb(255, 255, 255)" stroke-width="2.50" stroke-opacity="1.00" stroke-linejoin="round"/>
<path d="M200.56,162.32 C200.48,162.60 200.42,162.78 200.38,162.87 C199.60,164.61 194.56,170.71 193.44,171.99 C193.31,172.14 190.44,176.17 189.50,177.35 C186.25,181.40 178.71,185.97 177.17,186.86 C175.67,187.75 176.23,188.64 176.42,188.86 C176.53,188.85 180.38,187.09 180.73,186.93 C181.64,186.48 188.23,181.10 190.55,178.84 C191.81,177.63 197.47,170.70 198.90,166.98 C198.92,166.93 201.16,160.76 201.71,158.68 C201.80,158.32 201.89,157.92 201.98,157.47" fill="none" stroke="rgb(255, 255, 255)" stroke-width="2.50" stroke-opacity="1.00" stroke-linejoin="round"/>
<path d="M182.03,184.78 C181.96,184.90 181.91,184.98 181.89,185.02 C181.40,185.77 177.75,188.94 176.83,189.73 C174.55,191.49 159.42,197.41 151.48,199.39 C150.95,199.52 142.34,200.65 140.94,200.98 C140.31,201.14 139.69,201.30 139.06,201.46 C138.87,201.51 138.72,201.54 138.61,201.56" fill="none" stroke="rgb(255, 255, 255)" stroke-width="2.50" stroke-opacity="1.00" stroke-linejoin="round"/>
<path d="M128.07,172.31 C128.11,172.27 128.21,172.17 128.32,172.07 C128.41,171.98 133.58,168.76 135.44,166.93 C136.75,165.45 139.55,162.75 140.39,161.84 C143.96,156.99 145.67,154.04 146.89,150.74 C147.07,150.26 147.29,149.75 147.34,149.69" fill="none" stroke="rgb(255, 255, 255)" stroke-width="2.50" stroke-opacity="1.00" stroke-linejoin="round"/>
<path d="M120.30,213.53 C120.25,213.56 120.19,213.61 120.05,213.77 C119.31,214.57 117.85,216.70 116.03,217.34 C115.21,217.66 110.22,220.49 109.23,221.69 C108.64,222.35 107.06,224.44 106.06,227.57 C105.67,228.84 105.39,230.38 105.49,231.85 C105.54,232.46 105.82,233.49 106.09,234.18 C106.14,234.31 106.22,234.51 106.34,234.78" fill="none" stroke="rgb(255, 255, 255)" stroke-width="2.50" stroke-opacity="1.00" stroke-linejoin="round"/>
<path d="M106.20,234.08 C106.20,234.08 106.10,233.99 106.10,233.99 C106.10,234.20 106.21,234.82 106.33,235.19 C106.76,236.42 108.52,237.75 109.56,237.62 C111.34,237.39 113.28,237.52 114.05,237.30 C115.38,236.90 116.26,236.39 116.81,235.92 C116.98,235.78 117.13,235.57 117.23,235.40" fill="none" stroke="rgb(255, 255, 255)" stroke-width="2.50" stroke-opacity="1.00" stroke-linejoin="round"/>
<path d="M112.49,237.58 C112.49,237.58 112.46,237.69 112.46,237.69 C113.29,237.95 114.35,238.10 115.21,237.73 C116.32,237.24 120.78,231.58 123.91,230.36 C124.49,230.13 126.70,229.08 127.70,228.72 C128.21,228.55 128.91,228.31 129.21,228.19" fill="none" stroke="rgb(255, 255, 255)" stroke-width="2.50" stroke-opacity="1.00" stroke-linejoin="round"/>
<path d="M125.03,228.68 C125.07,228.71 125.09,228.72 125.09,228.73 C125.28,228.94 128.13,229.52 130.10,229.38 C133.30,229.17 135.84,229.49 136.92,229.76 C139.06,230.32 140.40,230.72 140.92,230.93 C140.98,230.96 141.04,230.99 141.11,231.02" fill="none" stroke="rgb(255, 255, 255)" stroke-width="2.50" stroke-opacity="1.00" stroke-linejoin="round"/>
<path d="M131.90,228.87 C131.89,228.89 131.90,228.90 131.95,228.92 C132.10,228.97 132.65,229.16 132.90,229.32 C134.21,230.09 138.94,233.25 139.30,233.44 C141.14,234.44 143.61,237.13 143.91,237.34 C144.27,237.57 147.71,237.26 147.88,237.12 C148.35,236.70 149.04,236.52 149.21,236.43" fill="none" stroke="rgb(255, 255, 255)" stroke-width="2.50" stroke-opacity="1.00" stroke-linejoin="round"/>
<path d="M137.59,205.19 C137.38,205.63 137.24,206.42 137.26,207.40 C137.30,209.32 136.98,211.63 137.12,213.29 C137.12,213.29 137.12,209.10 137.12,209.10 C137.12,209.10 137.67,215.80 137.67,215.80 C137.67,215.80 137.80,214.35 137.80,214.35 C138.80,215.26 146.15,218.89 147.27,220.28 C148.06,221.26 150.68,223.04 151.19,223.77 C151.65,224.44 153.60,228.26 153.61,228.57 C153.61,229.03 153.38,231.67 153.35,232.14 C153.62,231.77 151.29,236.52 149.87,237.41 C149.78,237.45 149.70,237.45 149.44,237.41 C149.40,237.40 149.35,237.40 149.29,237.39" fill="none" stroke="rgb(255, 255, 255)" stroke-width="2.50" stroke-opacity="1.00" stroke-linejoin="round"/>
<path d="M168.82,39.64 C168.82,39.64 168.86,39.69 168.86,39.69 C168.84,39.66 168.82,39.62 168.79,39.59 C167.50,37.76 166.81,36.17 166.46,35.72" fill="none" stroke="rgb(255, 255, 255)" stroke-width="2.50" stroke-opacity="1.00" stroke-linejoin="round"/>
<path d="M166.00,29.99 C166.31,28.51 167.98,26.03 168.96,25.66 C169.57,25.44 170.02,25.35 170.23,25.42" fill="none" stroke="rgb(255, 255, 255)" stroke-width="2.50" stroke-opacity="1.00" stroke-linejoin="round"/>
<path d="M140.98,103.22 C139.98,104.66 136.11,105.83 134.98,106.36 C134.56,106.54 127.33,109.98 125.52,110.47 C123.41,111.03 115.87,111.86 115.33,111.90 C112.20,112.12 82.17,107.50 80.95,107.13 C79.27,106.58 69.65,103.81 65.46,101.83 C64.97,101.60 59.01,98.28 56.24,97.11 C53.24,95.84 48.58,92.90 47.79,92.46 C48.26,92.81 50.56,95.14 55.45,97.74 C78.22,110.28 89.42,112.79 89.96,112.77 C89.96,112.77 83.14,108.97 83.14,108.97 C83.14,108.97 83.08,109.08 83.08,109.08" fill="none" stroke="rgb(255, 255, 255)" stroke-width="2.50" stroke-opacity="1.00" stroke-linejoin="round"/>
<path d="M38.99,86.22 C38.91,86.17 38.67,86.01 38.53,85.86 C37.58,84.73 35.45,82.32 34.12,81.36 C32.58,80.24 29.72,76.26 29.31,75.82 C29.34,75.84 29.44,75.93 29.59,76.11 C29.62,76.15 29.66,76.20 29.72,76.27" fill="none" stroke="rgb(255, 255, 255)" stroke-width="2.50" stroke-opacity="1.00" stroke-linejoin="round"/>
<path d="M40.19,121.17 C40.19,121.17 40.30,121.24 40.30,121.24 C40.30,121.24 38.12,121.01 38.12,121.01 C38.12,121.01 39.52,120.95 39.52,120.95 C39.52,120.95 38.41,120.71 38.41,120.71 C38.41,120.71 39.64,120.61 39.64,120.61 C39.64,120.61 38.60,120.69 38.60,120.69 C38.60,120.69 32.84,123.85 32.84,123.85 C33.18,124.18 34.77,126.18 35.58,126.75 C36.96,127.84 44.53,131.79 44.80,131.90 C45.26,132.10 45.78,132.30 45.93,132.34" fill="none" stroke="rgb(255, 255, 255)" stroke-width="2.50" stroke-opacity="1.00" stroke-linejoin="round"/>
<path d="M50.90,161.89 C50.90,161.89 50.74,161.52 50.74,161.52 C50.88,161.91 51.93,163.96 52.46,164.66 C53.56,166.06 57.98,169.70 59.77,171.05 C61.23,172.16 63.21,173.26 63.54,173.45 C63.54,173.45 63.46,173.36 63.46,173.36" fill="none" stroke="rgb(255, 255, 255)" stroke-width="2.50" stroke-opacity="1.00" stroke-linejoin="round"/>
<path d="M54.73,166.99 C54.76,167.03 54.79,167.09 54.83,167.17 C55.30,168.26 56.97,170.91 57.51,171.39 C58.92,172.63 63.99,175.36 64.17,175.48 C64.88,175.95 67.48,177.94 68.13,178.36" fill="none" stroke="rgb(255, 255, 255)" stroke-width="2.50" stroke-opacity="1.00" stroke-linejoin="round"/>
<path d="M60.80,173.45 C61.00,173.49 61.13,173.53 61.20,173.56 C61.47,173.69 66.56,177.07 68.43,178.07 C69.53,178.66 72.97,180.83 73.92,181.21 C78.13,182.84 85.97,184.16 86.27,184.16 C86.75,184.18 87.53,184.16 87.78,184.13 C87.85,184.12 87.95,184.10 88.06,184.08" fill="none" stroke="rgb(255, 255, 255)" stroke-width="2.50" stroke-opacity="1.00" stroke-linejoin="round"/>
<path d="M92.37,183.91 C92.35,183.89 92.11,183.93 92.01,183.94 C91.75,183.99 90.44,184.47 90.09,184.49 C90.09,184.49 92.68,184.47 92.68,184.47 C92.68,184.47 102.76,184.27 102.76,184.27 C101.26,184.67 92.53,185.03 87.73,184.57 C86.98,184.50 84.10,184.57 83.68,184.53 C83.68,184.53 79.54,182.61 79.54,182.61 C79.54,182.61 79.71,182.62 79.71,182.62" fill="none" stroke="rgb(255, 255, 255)" stroke-width="2.50" stroke-opacity="1.00" stroke-linejoin="round"/>
<path d="M63.90,176.36 C63.97,176.38 64.27,176.78 64.54,177.02 C66.09,178.45 71.25,180.63 73.44,181.68 C75.29,182.56 82.88,184.90 83.29,184.90 C83.29,184.90 83.21,184.84 83.21,184.84 C83.21,184.84 83.14,184.85 83.14,184.85" fill="none" stroke="rgb(255, 255, 255)" stroke-width="2.50" stroke-opacity="1.00" stroke-linejoin="round"/>
<path d="M63.37,175.93 C63.35,175.86 63.26,175.67 63.14,175.53 C62.38,174.65 58.72,171.58 58.53,171.37 C58.53,171.37 60.42,173.68 60.42,173.68 C60.42,173.68 58.85,172.21 58.85,172.21 C58.85,172.21 59.95,173.29 59.95,173.29 C59.81,173.17 59.60,172.96 59.53,172.83 C59.47,172.71 59.42,172.47 59.41,172.39" fill="none" stroke="rgb(255, 255, 255)" stroke-width="2.50" stroke-opacity="1.00" stroke-linejoin="round"/>
<path d="M62.67,175.41 C62.69,175.41 62.72,175.45 62.78,175.50 C62.94,175.67 63.09,175.83 63.25,175.99 C63.26,176.00 63.24,175.97 63.23,175.96" fill="none" stroke="rgb(255, 255, 255)" stroke-width="2.50" stroke-opacity="1.00" stroke-linejoin="round"/>
<path d="M30.32,74.69 C30.32,74.69 30.37,74.57 30.37,74.57 C30.37,74.57 30.39,74.72 30.39,74.72" fill="none" stroke="rgb(255, 255, 255)" stroke-width="0.31" stroke-opacity="1.00" stroke-linejoin="round"/>
<path d="M30.76,75.88 C31.07,76.21 31.24,76.82 31.09,76.61 C31.06,76.56 31.00,76.48 30.93,76.38 C31.03,76.64 31.49,76.95 31.50,76.97 C31.51,76.99 31.54,77.14 31.55,77.18 C31.55,77.20 31.56,77.22 31.57,77.24" fill="none" stroke="rgb(255, 255, 255)" stroke-width="0.31" stroke-opacity="1.00" stroke-linejoin="round"/>
<path d="M31.71,77.68 C31.74,77.68 31.76,77.69 31.78,77.70 C31.88,77.75 32.06,77.89 32.27,78.08 C32.27,78.08 31.09,76.58 31.09,76.58 C31.09,76.58 31.41,76.65 31.41,76.65" fill="none" stroke="rgb(255, 255, 255)" stroke-width="0.31" stroke-opacity="1.00" stroke-linejoin="round"/>
<path d="M32.12,78.15 C32.12,78.15 32.24,78.16 32.24,78.16 C32.31,77.64 32.52,77.97 32.50,77.96 C32.48,77.95 32.47,77.94 32.46,77.92" fill="none" stroke="rgb(255, 255, 255)" stroke-width="0.31" stroke-opacity="1.00" stroke-linejoin="round"/>
<path d="M29.74,74.86 C29.74,74.86 29.73,74.78 29.73,74.78 C29.73,74.78 29.63,74.64 29.63,74.64" fill="none" stroke="rgb(255, 255, 255)" stroke-width="0.31" stroke-opacity="1.00" stroke-linejoin="round"/>
<path d="M29.41,74.52 C29.41,74.52 29.50,74.59 29.50,74.59 C29.50,74.59 29.49,74.53 29.49,74.53" fill="none" stroke="rgb(255, 255, 255)" stroke-width="0.31" stroke-opacity="1.00" stroke-linejoin="round"/>
<path d="M29.47,74.56 C29.50,74.61 29.51,74.63 29.52,74.65 C29.53,74.66 29.55,74.69 29.58,74.72" fill="none" stroke="rgb(255, 255, 255)" stroke-width="0.31" stroke-opacity="1.00" stroke-linejoin="round"/>
<path d="M32.40,77.87 C32.40,77.87 32.37,77.81 32.37,77.81" fill="none" stroke="rgb(255, 255, 255)" stroke-width="0.31" stroke-opacity="1.00" stroke-linejoin="round"/>
<path d="M32.53,77.71 C32.53,77.71 32.48,77.67 32.48,77.67" fill="none" stroke="rgb(255, 255, 255)" stroke-width="0.31" stroke-opacity="1.00" stroke-linejoin="round"/>
<path d="M32.47,77.58 C32.47,77.58 32.52,77.64 32.52,77.64" fill="none" stroke="rgb(255, 255, 255)" stroke-width="0.31" stroke-opacity="1.00" stroke-linejoin="round"/>
<path d="M33.42,78.79 C33.42,78.79 33.40,78.71 33.40,78.71" fill="none" stroke="rgb(255, 255, 255)" stroke-width="0.31" stroke-opacity="1.00" stroke-linejoin="round"/>
<path d="M33.39,78.73 C33.39,78.73 33.44,78.76 33.44,78.76" fill="none" stroke="rgb(255, 255, 255)" stroke-width="0.31" stroke-opacity="1.00" stroke-linejoin="round"/>
<path d="M33.46,78.80" fill="none" stroke="rgb(255, 255, 255)" stroke-width="0.31" stroke-opacity="1.00" stroke-linejoin="round"/>
<path d="M40.21,85.81 C40.21,85.81 40.25,85.86 40.25,85.86 C40.20,85.80 40.05,85.61 39.87,85.40 C38.45,83.79 33.46,78.77 32.90,78.15 C32.90,78.15 33.68,78.91 33.68,78.91 C33.55,78.79 33.67,78.93 33.65,78.91 C33.62,78.90 33.67,78.96 33.69,78.99" fill="none" stroke="rgb(255, 255, 255)" stroke-width="0.31" stroke-opacity="1.00" stroke-linejoin="round"/>
<path d="M33.26,78.75 C33.25,78.72 33.25,78.70 33.24,78.68 C33.21,78.59 33.21,78.54 33.22,78.53 C33.38,78.46 35.11,80.54 35.65,81.10 C35.65,81.10 33.00,78.48 33.00,78.48 C33.00,78.48 32.93,78.41 32.93,78.41" fill="none" stroke="rgb(255, 255, 255)" stroke-width="0.31" stroke-opacity="1.00" stroke-linejoin="round"/>
<path d="M33.09,78.54 C33.09,78.54 33.11,78.48 33.11,78.48 C33.11,78.48 34.43,79.98 34.43,79.98 C34.43,79.98 33.78,79.20 33.78,79.20 C33.78,79.20 34.80,80.13 34.80,80.13 C34.80,80.13 33.80,79.17 33.80,79.17 C33.80,79.17 34.68,79.97 34.68,79.97 C34.68,79.97 33.78,79.13 33.78,79.13 C33.78,79.13 34.00,79.42 34.00,79.42" fill="none" stroke="rgb(255, 255, 255)" stroke-width="0.31" stroke-opacity="1.00" stroke-linejoin="round"/>
<path d="M34.17,79.73 C34.23,79.76 34.30,79.79 34.37,79.83 C34.51,79.89 34.58,79.90 34.65,79.90 C34.64,79.78 34.55,79.87 34.32,79.72 C34.29,79.70 34.28,79.69 34.26,79.68" fill="none" stroke="rgb(255, 255, 255)" stroke-width="0.31" stroke-opacity="1.00" stroke-linejoin="round"/>
<path d="M37.30,82.62" fill="none" stroke="rgb(255, 255, 255)" stroke-width="0.31" stroke-opacity="1.00" stroke-linejoin="round"/>
<path d="M37.30,82.64 C37.30,82.64 37.19,82.50 37.19,82.50 C37.19,82.50 38.57,84.13 38.57,84.13 C38.57,84.13 37.86,83.33 37.86,83.33 C37.86,83.33 38.74,84.18 38.74,84.18 C38.74,84.18 38.09,83.37 38.09,83.37 C38.09,83.37 39.63,85.24 39.63,85.24 C39.63,85.24 40.55,85.78 40.55,85.78 C40.55,85.78 40.38,85.62 40.38,85.62" fill="none" stroke="rgb(255, 255, 255)" stroke-width="0.31" stroke-opacity="1.00" stroke-linejoin="round"/>
<path d="M38.58,83.98 C38.58,83.96 38.38,83.69 38.30,83.58 C38.30,83.58 38.29,83.57 38.30,83.57 C38.30,83.57 37.38,82.57 37.38,82.57 C37.65,82.85 37.78,82.44 37.64,82.43 C37.62,82.43 37.52,82.48 37.48,82.50" fill="none" stroke="rgb(255, 255, 255)" stroke-width="0.31" stroke-opacity="1.00" stroke-linejoin="round"/>
<path d="M38.53,83.88 C38.53,83.88 38.58,83.90 38.58,83.90 C38.58,83.90 38.63,83.84 38.63,83.84 C38.63,83.84 38.51,83.54 38.51,83.54" fill="none" stroke="rgb(255, 255, 255)" stroke-width="0.31" stroke-opacity="1.00" stroke-linejoin="round"/>
</g>
</svg>
