<?xml version="1.0" standalone="no"?>
<!DOCTYPE svg PUBLIC "-//W3C//DTD SVG 20010904//EN"
 "http://www.w3.org/TR/2001/REC-SVG-20010904/DTD/svg10.dtd">
<svg version="1.0" xmlns="http://www.w3.org/2000/svg"
 width="1000.000000pt" height="1000.000000pt" viewBox="0 0 1000.000000 1000.000000"
 preserveAspectRatio="xMidYMid meet">

<g transform="translate(0.000000,1000.000000) scale(0.100000,-0.100000)" stroke="none">
<path d="M4993 8250 c-1117 -8 -2033 -17 -2036 -20 -2 -3 -229 -287 -504 -631
l-501 -626 394 -774 c216 -426 394 -785 394 -798 0 -22 -123 -518 -137 -551
-3 -8 -7 -19 -8 -25 -1 -5 -3 -13 -5 -17 -1 -5 -3 -11 -5 -15 -1 -5 -4 -15 -8
-23 -3 -8 -19 -69 -36 -135 -16 -66 -46 -183 -66 -260 -21 -77 -41 -158 -47
-180 -5 -21 -14 -45 -20 -52 -6 -8 -8 -16 -5 -20 4 -3 3 -11 -2 -17 -5 -6 -19
-46 -30 -89 -12 -42 -30 -90 -39 -106 -16 -28 -15 -31 2 -50 52 -58 109 -1
150 149 16 58 41 150 56 205 16 55 31 116 35 135 4 19 12 41 19 49 6 8 10 15
8 15 -2 1 -1 8 2 16 3 8 35 132 71 275 36 143 68 267 72 275 3 8 5 19 4 24 -1
4 4 14 10 22 6 8 8 14 4 14 -4 0 -2 6 4 14 7 8 11 20 10 28 -1 7 1 20 4 28 4
8 14 45 24 81 l18 67 643 -1264 c354 -695 641 -1268 637 -1274 -3 -5 -11 -10
-16 -10 -5 0 -26 -7 -47 -17 -20 -9 -39 -17 -42 -17 -3 -1 -11 -5 -17 -9 -7
-5 -13 -5 -13 -2 0 3 -10 -1 -22 -9 -12 -9 -29 -16 -37 -16 -28 0 -321 -131
-511 -228 -488 -249 -562 -300 -515 -352 33 -37 80 -23 215 65 67 44 222 125
239 125 5 0 40 14 78 32 37 17 70 32 73 33 3 1 23 10 44 19 22 10 76 30 120
46 45 15 128 45 186 65 58 20 112 39 120 42 8 4 17 7 20 8 3 1 12 5 20 8 28
13 193 67 195 64 1 -1 186 -363 410 -805 224 -441 411 -802 415 -802 4 0 236
455 515 1012 l508 1011 166 -6 c107 -4 191 -13 236 -24 65 -17 70 -20 75 -48
3 -19 -3 -46 -17 -75 -12 -25 -23 -55 -23 -67 0 -26 25 -53 50 -53 68 0 132
195 86 265 -46 70 -149 101 -373 111 -79 4 -143 9 -143 11 0 4 61 126 65 131
1 2 83 30 181 63 99 32 186 62 194 66 8 3 17 7 20 8 3 1 22 9 42 18 21 10 41
17 45 17 9 0 361 116 399 131 16 7 32 13 37 14 4 2 9 4 12 5 3 1 8 3 13 5 4 1
20 7 35 13 16 7 34 12 40 12 7 0 59 15 117 34 58 19 157 48 220 66 63 18 119
36 124 40 5 5 15 6 22 3 8 -3 21 0 29 7 9 7 18 10 22 7 3 -4 12 -2 20 4 7 6
13 8 13 4 0 -4 6 -3 13 2 6 6 44 17 82 26 171 39 253 56 299 63 76 11 109 59
69 100 -15 15 -33 16 -146 11 -70 -4 -133 -10 -140 -14 -6 -4 -26 -6 -44 -4
-18 1 -38 -1 -45 -5 -7 -5 -26 -7 -41 -5 -15 1 -33 -2 -40 -7 -7 -5 -48 -15
-92 -21 -69 -10 -135 -25 -207 -48 -16 -5 -18 4 -18 94 0 55 -3 103 -7 106 -3
4 -5 40 -4 81 1 41 -2 83 -8 93 -8 15 -72 739 -71 809 0 17 10 23 52 33 98 22
114 66 49 136 -56 61 -81 164 -81 333 l0 92 143 283 142 282 5 -74 c4 -65 8
-76 31 -94 45 -33 102 8 77 56 -5 10 -8 37 -6 60 l3 42 60 3 c132 7 288 56
300 93 9 27 -3 57 -25 64 -11 4 -54 -5 -95 -20 -41 -14 -111 -29 -155 -33
l-81 -8 6 80 c6 79 9 87 149 371 l143 290 -104 123 c-56 68 -103 131 -103 141
0 16 24 205 36 288 8 51 -6 73 -47 73 -32 0 -43 -17 -73 -120 -9 -30 -24 -65
-34 -76 -17 -21 -21 -16 -352 383 -184 222 -342 412 -350 421 -14 16 -130 16
-2047 2z m2358 -422 c184 -221 340 -410 347 -420 12 -17 9 -25 -29 -76 -70
-94 -290 -302 -319 -302 -15 0 -56 144 -109 385 -52 233 -157 606 -193 682
-22 46 -32 57 -65 67 -39 12 -70 -31 -152 -214 -106 -238 -147 -317 -263 -514
-55 -93 -121 -211 -146 -263 l-45 -94 -76 148 c-103 201 -221 363 -264 363
-54 0 -69 -44 -262 -786 -30 -115 -68 -250 -85 -299 -17 -49 -27 -97 -24 -108
10 -31 44 -36 97 -16 36 14 74 19 150 19 131 0 253 -15 797 -100 245 -39 461
-73 480 -76 l35 -5 -2 -412 -3 -412 -77 -157 -77 -157 -68 -15 c-38 -9 -144
-28 -236 -42 -92 -15 -174 -29 -182 -32 -8 -3 -25 -4 -37 -3 -13 1 -28 -1 -35
-6 -24 -15 -262 -40 -270 -29 -4 6 -7 209 -6 451 2 473 2 479 -48 491 -19 5
-32 1 -47 -15 -22 -21 -22 -29 -28 -394 -3 -232 -10 -408 -19 -468 l-14 -96
-145 -12 c-175 -14 -520 -14 -578 -1 -50 12 -88 0 -98 -30 -7 -23 20 -74 35
-65 5 3 11 1 15 -5 4 -6 11 -8 16 -4 5 3 15 2 22 -4 7 -5 37 -17 67 -26 75
-24 219 -100 291 -152 32 -24 63 -44 68 -44 5 0 21 -15 36 -32 15 -18 36 -36
46 -40 11 -4 24 -19 29 -33 5 -14 14 -25 20 -25 21 0 8 -32 -31 -74 -46 -50
-123 -111 -189 -150 -41 -25 -248 -129 -260 -132 -3 0 -17 -6 -32 -12 -111
-46 -360 -78 -488 -63 -110 14 -255 64 -268 94 -2 4 -9 7 -16 7 -7 0 -31 16
-54 35 -91 78 -134 243 -97 371 20 68 82 194 97 194 5 0 7 4 4 9 -3 4 36 51
87 104 87 90 95 96 142 101 73 9 148 27 163 39 6 5 12 6 12 2 0 -4 7 -2 15 5
9 7 18 10 22 7 3 -4 12 -2 20 4 7 6 13 8 13 4 0 -4 6 -3 13 2 6 6 44 21 82 33
85 27 123 46 153 73 29 27 28 48 -4 78 -21 20 -38 24 -102 27 -43 2 -104 -1
-137 -7 -60 -11 -201 -77 -281 -132 -40 -27 -44 -28 -85 -16 -54 16 -89 62
-89 118 0 33 7 46 54 93 127 126 319 267 481 351 61 32 128 68 150 80 46 26
93 46 260 110 66 26 126 51 133 57 6 6 12 7 12 3 0 -4 7 -2 15 5 8 6 19 9 25
5 5 -3 10 -1 10 5 0 6 6 10 13 9 6 -1 23 2 37 8 14 6 58 21 99 34 58 19 78 30
92 53 16 26 16 31 2 52 -8 13 -31 29 -51 36 -42 14 -300 16 -323 3 -7 -5 -28
-8 -45 -6 -18 1 -35 -2 -38 -8 -4 -6 -14 -7 -22 -4 -8 3 -25 1 -37 -5 -12 -6
-62 -20 -112 -32 -254 -62 -463 -171 -625 -326 -132 -126 -211 -263 -240 -415
-6 -31 -28 -76 -61 -126 -52 -78 -114 -216 -142 -315 -37 -129 -50 -255 -45
-449 2 -104 2 -189 -2 -189 -3 0 -28 14 -56 32 -27 18 -52 31 -56 30 -4 -1
-16 10 -26 23 -11 14 -24 25 -28 25 -13 0 -104 93 -104 107 0 7 -11 20 -25 29
-14 9 -25 20 -25 25 0 5 -23 44 -50 86 -28 42 -63 111 -79 153 -33 84 -76 271
-87 370 -4 36 -9 69 -12 75 -3 5 -5 26 -3 47 1 21 -1 38 -6 38 -4 0 -7 20 -5
45 2 26 -1 52 -8 60 -7 8 -10 40 -9 79 1 36 -1 69 -4 73 -4 3 -7 180 -7 392 0
420 -1 431 -55 431 -22 0 -65 -34 -65 -51 0 -4 -5 -20 -12 -36 -6 -15 -10 -32
-9 -37 1 -4 -4 -14 -10 -22 -6 -8 -8 -14 -4 -14 4 0 2 -7 -5 -15 -7 -8 -10
-21 -7 -29 3 -7 2 -17 -3 -22 -4 -5 -20 -61 -35 -124 -30 -129 -98 -348 -123
-395 -9 -16 -16 -32 -15 -35 3 -12 -85 -115 -101 -118 -27 -6 -81 52 -109 117
-47 105 -76 299 -81 538 -2 132 -5 156 -21 173 -11 12 -28 20 -38 18 -41 -6
-55 -47 -82 -233 -31 -212 -73 -464 -82 -485 -3 -8 -5 -19 -4 -24 1 -4 -3 -14
-10 -22 -6 -8 -9 -21 -5 -29 3 -8 2 -15 -2 -15 -6 0 -193 363 -620 1206 l-153
303 494 618 495 618 1349 11 c741 6 1650 11 2019 12 l671 2 334 -402z m-211
-432 c85 -382 130 -496 195 -496 40 0 271 199 377 324 l49 58 -6 -48 c-3 -27
-19 -200 -35 -384 -16 -184 -34 -388 -41 -454 l-12 -119 -101 7 c-152 10 -368
40 -826 112 -556 87 -684 104 -824 104 -118 0 -118 0 -112 23 4 12 31 114 61
227 102 389 176 664 183 677 19 33 245 -372 258 -462 3 -27 11 -56 16 -62 15
-19 62 -16 81 5 8 9 51 91 94 182 44 91 112 218 152 284 117 192 186 329 303
596 l20 45 59 -195 c32 -107 81 -298 109 -424z m816 -296 l78 -94 -114 -223
c-63 -122 -116 -220 -118 -218 -2 2 9 150 24 329 22 251 31 323 40 313 6 -6
47 -55 90 -107z m-460 -911 c60 -6 110 -12 112 -14 2 -1 -53 -115 -122 -251
l-125 -249 0 263 c-1 211 2 262 12 262 8 0 63 -5 123 -11z m-1847 -223 c-2 -2
-33 -14 -69 -26 -36 -12 -96 -37 -135 -55 -38 -18 -101 -45 -140 -60 -93 -37
-151 -66 -266 -136 -54 -33 -100 -59 -104 -59 -12 0 -157 -105 -234 -170 l-74
-62 24 41 c68 122 233 273 388 355 49 25 93 46 98 46 6 0 28 8 49 17 22 9 42
18 47 19 4 1 9 3 12 4 3 1 8 3 13 5 4 1 19 7 33 13 77 31 380 89 358 68z
m-2112 -78 c-3 -8 -6 -5 -6 6 -1 11 2 17 5 13 3 -3 4 -12 1 -19z m2 -288 c15
-351 61 -716 103 -817 6 -15 12 -31 13 -35 2 -5 4 -11 5 -15 2 -5 4 -12 5 -18
2 -5 4 -13 5 -17 1 -5 3 -11 4 -15 4 -18 88 -177 119 -226 51 -79 196 -227
279 -284 63 -43 131 -84 148 -88 3 -1 18 -7 35 -14 21 -9 36 -9 52 -2 41 19
47 50 35 169 -16 146 -15 308 3 422 9 52 18 102 22 110 3 8 7 18 8 23 2 4 4 9
5 12 1 3 3 8 5 13 1 4 6 18 12 32 6 14 18 47 27 73 9 26 27 70 41 97 l25 49
53 -53 c28 -29 59 -56 67 -58 11 -4 -2 -23 -45 -69 -70 -73 -122 -144 -156
-209 -13 -25 -23 -47 -24 -50 0 -3 -6 -14 -12 -25 -21 -37 -36 -144 -31 -223
9 -155 117 -306 278 -386 49 -24 115 -50 147 -56 32 -7 65 -15 73 -17 8 -3 29
-5 46 -4 18 1 35 -2 39 -8 8 -14 112 -14 120 0 4 6 28 10 54 8 25 -1 53 1 61
4 8 3 35 8 60 11 122 17 347 96 430 150 19 13 68 45 108 72 41 27 83 54 94 61
11 6 47 37 79 69 l58 57 58 -91 c69 -110 124 -204 171 -292 39 -74 57 -93 86
-84 43 13 74 82 45 99 -6 4 -10 28 -8 54 1 25 -1 53 -4 61 -3 8 -24 170 -47
360 -22 190 -43 355 -46 367 -5 27 -14 25 221 53 99 12 257 35 352 51 94 16
173 29 176 29 8 0 -795 -1594 -807 -1602 -6 -4 -96 -35 -201 -69 -104 -34
-199 -67 -210 -74 -11 -7 -130 -47 -265 -90 -135 -42 -251 -82 -257 -87 -7 -6
-13 -7 -13 -3 0 4 -6 3 -12 -3 -18 -14 -178 -61 -267 -78 -133 -26 -386 -86
-397 -95 -6 -5 -14 -6 -17 -2 -4 3 -12 1 -19 -4 -7 -6 -42 -18 -78 -27 -36 -9
-119 -32 -184 -51 -66 -19 -120 -34 -121 -33 -1 2 -264 518 -585 1148 -320
630 -614 1207 -653 1284 l-71 138 13 57 c6 31 23 110 36 176 34 165 34 165 45
165 5 0 7 -7 4 -15 -4 -8 -1 -21 5 -29 6 -7 8 -16 4 -19 -3 -4 0 -13 6 -21 7
-8 11 -20 10 -28 -3 -16 4 -35 47 -125 73 -152 194 -196 288 -105 67 63 88
104 168 312 5 14 8 25 6 26 -2 0 3 8 10 17 8 9 11 21 8 26 -4 5 -2 12 3 15 5
3 14 29 21 57 7 27 14 49 15 47 2 -2 9 -118 14 -258z m3689 -433 l-3 -51 -55
-12 c-30 -7 -59 -13 -63 -14 -4 0 18 51 50 113 l57 112 9 -49 c4 -27 7 -72 5
-99z m19 -200 c0 -24 3 -49 7 -55 4 -7 7 -36 6 -65 -2 -28 0 -59 3 -67 7 -21
45 -487 57 -700 5 -96 12 -212 15 -256 6 -87 9 -82 -45 -98 -3 -1 -9 -4 -15
-8 -5 -3 -104 -36 -220 -73 -115 -37 -214 -71 -219 -75 -5 -5 -15 -6 -22 -3
-8 3 -14 0 -14 -7 0 -7 -6 -10 -14 -7 -8 3 -17 3 -21 -1 -4 -4 -10 -7 -13 -8
-4 0 -18 -5 -32 -11 -14 -6 -109 -39 -210 -73 -102 -34 -191 -66 -197 -72 -7
-6 -13 -8 -13 -5 0 3 -12 0 -27 -8 -15 -8 -29 -13 -31 -11 -6 7 790 1591 807
1602 8 7 19 10 23 8 5 -3 14 -2 21 3 14 9 102 30 133 32 19 1 22 -4 21 -42z
m-1195 -182 c-4 -34 -27 -123 -44 -163 -6 -15 -12 -29 -13 -32 0 -3 -6 -15
-13 -28 -13 -23 -13 -23 -70 29 -76 70 -169 139 -226 169 -25 14 -46 27 -46
30 0 3 43 3 95 2 63 -3 100 0 110 8 8 7 39 10 74 9 34 -1 64 1 68 5 4 4 21 6
38 4 27 -3 30 -6 27 -33z m102 -111 c-3 -13 -3 -32 1 -41 5 -10 7 -28 6 -41
-2 -13 3 -29 9 -37 6 -8 11 -27 9 -42 -1 -15 1 -35 4 -43 3 -8 11 -62 17 -120
6 -58 14 -118 17 -135 4 -21 -21 9 -81 99 l-86 130 34 80 c19 45 39 105 46
133 7 29 16 50 21 47 5 -3 6 -16 3 -30z m-55 -1517 l-32 -64 -156 -11 c-86 -7
-167 -12 -181 -11 -14 0 47 24 135 53 88 28 169 56 180 60 11 5 28 10 38 11
10 1 23 7 29 13 20 20 19 14 -13 -51z m-583 -1157 c-270 -539 -493 -980 -496
-980 -3 0 -183 350 -400 778 l-395 777 95 33 c52 17 102 35 110 39 8 3 20 7
25 8 6 1 13 3 18 5 4 1 12 4 17 5 6 1 12 4 15 5 3 1 8 3 13 5 4 1 18 6 32 12
14 6 63 22 110 37 224 69 346 107 360 113 8 3 18 7 23 8 4 2 9 4 12 5 3 1 8 3
13 5 4 1 14 5 22 8 41 18 462 78 670 96 69 6 141 13 160 15 19 1 47 4 61 4 25
2 1 -49 -465 -978z"/>
<path d="M2656 7414 c-231 -272 -384 -459 -377 -463 14 -9 762 -143 767 -138
2 2 3 241 2 530 l-3 527 -389 -456z m362 -331 l-3 -239 -343 62 c-189 35 -345
64 -347 66 -2 2 153 186 344 410 l346 406 3 -233 c1 -129 1 -341 0 -472z"/>
<path d="M6852 7424 c-24 -17 -127 -216 -182 -350 -31 -77 -34 -80 -61 -76
-59 9 -82 -52 -32 -85 52 -35 116 -109 206 -243 82 -121 95 -135 121 -135 18
0 34 8 42 20 12 18 11 26 -5 56 -15 28 -17 40 -7 66 18 50 129 202 148 202 10
1 22 11 29 22 9 18 6 34 -15 88 -15 36 -46 134 -70 216 -36 125 -49 156 -77
186 -42 45 -68 54 -97 33z m92 -298 c55 -188 58 -164 -37 -299 l-55 -79 -33
49 c-17 26 -47 67 -65 89 l-34 42 26 63 c35 90 136 299 144 299 4 0 28 -74 54
-164z"/>
</g>
</svg>
