<?xml version="1.0" standalone="no"?>
<!DOCTYPE svg PUBLIC "-//W3C//DTD SVG 20010904//EN"
 "http://www.w3.org/TR/2001/REC-SVG-20010904/DTD/svg10.dtd">
<svg version="1.0" xmlns="http://www.w3.org/2000/svg"
 width="1000.000000pt" height="1000.000000pt" viewBox="0 0 1000.000000 1000.000000"
 preserveAspectRatio="xMidYMid meet">

<g transform="translate(0.000000,1000.000000) scale(0.100000,-0.100000)"
fill="#000000" stroke="none">
<path d="M4964 9858 c-27 -13 -103 -131 -188 -291 -70 -134 -93 -164 -241
-313 -145 -145 -350 -267 -618 -368 -392 -147 -869 -211 -1380 -186 -349 17
-824 71 -1116 127 -75 14 -149 28 -164 31 -82 14 -183 -56 -211 -145 -8 -26
-22 -64 -33 -83 -17 -33 -18 -68 -17 -540 1 -633 16 -878 90 -1535 160 -1419
284 -2052 521 -2655 78 -199 243 -538 347 -712 173 -289 435 -659 662 -933
134 -162 519 -548 679 -681 418 -347 935 -680 1563 -1005 l142 -74 143 74
c627 325 1144 658 1562 1005 160 133 545 519 679 681 227 274 489 644 662 933
104 174 269 513 347 712 237 603 361 1236 521 2655 74 657 89 902 90 1535 1
472 0 507 -17 540 -11 19 -25 57 -33 83 -28 89 -129 159 -211 145 -15 -3 -89
-17 -164 -31 -292 -56 -767 -110 -1116 -127 -511 -25 -988 39 -1380 186 -268
101 -473 223 -618 368 -151 152 -172 180 -251 333 -142 274 -174 308 -250 271z
m2043 -1710 c37 -30 148 -392 224 -733 53 -241 94 -385 109 -385 15 0 131 99
217 186 95 97 195 243 212 311 23 89 38 113 70 113 41 0 55 -22 47 -73 -3 -23
-10 -71 -16 -107 -5 -36 -25 -248 -45 -470 -19 -223 -42 -470 -50 -549 -8 -79
-15 -149 -15 -155 0 -19 149 0 235 29 41 15 84 24 95 20 22 -7 34 -37 25 -64
-12 -37 -168 -86 -300 -93 l-60 -3 2 -55 c1 -30 2 -64 3 -75 1 -20 -24 -45
-46 -45 -6 0 -23 9 -38 21 -23 18 -26 27 -26 88 l0 68 -97 7 c-54 3 -120 9
-147 13 l-49 6 7 -389 c8 -481 16 -542 87 -619 65 -70 49 -114 -49 -136 -42
-10 -52 -16 -52 -33 -1 -70 63 -794 71 -809 6 -10 9 -52 8 -93 -1 -41 1 -77 4
-81 4 -3 7 -51 7 -106 0 -90 2 -99 18 -94 72 23 138 38 207 48 44 6 85 16 92
21 7 5 25 8 40 7 15 -2 34 0 41 5 7 4 27 6 45 5 18 -2 38 0 44 4 7 4 70 10
140 14 113 5 131 4 146 -11 40 -41 7 -89 -69 -100 -46 -7 -128 -24 -299 -63
-38 -9 -76 -20 -82 -26 -7 -5 -13 -6 -13 -2 0 4 -6 2 -13 -4 -8 -6 -17 -8 -20
-4 -4 3 -13 0 -22 -7 -8 -7 -21 -10 -29 -7 -7 3 -17 2 -22 -3 -5 -4 -61 -22
-124 -40 -63 -18 -162 -47 -220 -66 -58 -19 -110 -34 -117 -34 -6 0 -24 -5
-40 -12 -15 -6 -31 -12 -35 -13 -5 -2 -10 -4 -13 -5 -3 -1 -8 -3 -12 -5 -5 -1
-15 -5 -23 -8 -31 -14 -111 -41 -289 -98 -101 -32 -190 -64 -198 -70 -7 -6
-13 -8 -13 -4 0 4 -6 3 -12 -2 -7 -6 -105 -41 -218 -78 -113 -37 -215 -74
-226 -82 -12 -8 -26 -13 -30 -12 -5 1 -18 -2 -29 -6 -11 -5 -92 -33 -180 -62
l-160 -53 120 8 c211 13 541 7 624 -12 79 -17 140 -50 167 -91 46 -70 -18
-265 -86 -265 -25 0 -50 27 -50 53 0 12 11 42 23 67 14 29 20 56 17 75 -5 28
-11 32 -75 49 -59 16 -108 19 -320 20 -240 1 -324 -5 -600 -40 -149 -19 -415
-62 -435 -71 -8 -3 -18 -7 -22 -8 -5 -2 -10 -4 -13 -5 -3 -1 -8 -3 -12 -5 -5
-1 -15 -5 -23 -8 -14 -6 -136 -44 -360 -113 -47 -15 -96 -31 -110 -37 -14 -6
-28 -11 -32 -12 -5 -2 -10 -4 -13 -5 -3 -1 -8 -3 -12 -4 -5 -1 -14 -5 -21 -10
-7 -4 -16 -5 -19 -2 -3 3 -11 2 -17 -3 -6 -5 -105 -39 -221 -76 -115 -37 -214
-70 -220 -73 -5 -4 -12 -7 -15 -8 -3 0 -12 -3 -20 -7 -8 -3 -62 -22 -120 -42
-58 -20 -141 -50 -186 -65 -44 -16 -98 -36 -120 -46 -21 -9 -41 -18 -44 -19
-3 -1 -36 -16 -73 -33 -38 -18 -73 -32 -78 -32 -17 0 -172 -81 -239 -125 -135
-88 -182 -102 -215 -65 -47 52 27 103 515 352 190 97 483 228 511 228 8 0 25
7 37 16 12 8 22 12 22 8 0 -3 7 -1 15 6 8 7 15 10 15 6 0 -4 10 0 23 8 22 15
298 100 423 131 38 10 75 22 82 28 7 5 15 7 19 4 3 -4 11 -3 17 2 11 9 264 69
397 95 89 17 249 64 267 78 6 6 12 7 12 3 0 -4 6 -3 13 3 6 5 122 45 257 87
135 43 256 84 270 92 14 7 129 47 255 88 127 42 237 78 245 82 8 3 17 7 20 8
3 1 19 7 35 14 17 7 103 37 191 67 89 29 174 59 190 65 16 7 32 13 36 13 3 1
9 4 13 8 4 4 13 4 21 1 8 -3 14 0 14 7 0 7 6 10 14 7 7 -3 17 -2 22 3 5 4 104
38 219 75 116 37 216 72 224 79 8 6 15 10 15 9 1 -1 11 0 24 4 22 5 23 8 17
87 -3 44 -10 160 -15 256 -12 213 -50 679 -57 700 -3 8 -5 39 -3 67 1 29 -2
58 -6 65 -4 6 -7 31 -7 55 1 29 -4 43 -13 43 -18 0 -116 -20 -134 -28 -8 -3
-19 -7 -25 -7 -5 -1 -17 -5 -25 -8 -51 -19 -355 -70 -585 -97 -235 -28 -226
-26 -221 -53 3 -12 24 -177 46 -367 23 -190 44 -352 47 -360 3 -8 5 -36 4 -61
-2 -26 2 -50 8 -54 29 -17 -2 -86 -45 -99 -29 -9 -47 10 -86 84 -47 88 -102
182 -171 292 l-58 91 -58 -57 c-32 -32 -68 -63 -79 -69 -11 -7 -53 -34 -94
-61 -40 -27 -89 -59 -108 -72 -83 -54 -308 -133 -430 -150 -25 -3 -52 -8 -60
-11 -8 -3 -36 -5 -61 -4 -26 2 -50 -2 -54 -8 -8 -14 -112 -14 -120 0 -4 6 -21
9 -39 8 -17 -1 -38 1 -46 4 -8 2 -41 10 -73 17 -32 6 -98 32 -147 56 -161 80
-269 231 -278 386 -5 79 10 186 31 223 6 11 12 22 12 25 1 3 11 25 24 50 34
65 86 136 156 209 43 46 56 65 45 69 -8 2 -39 29 -67 58 l-53 53 -25 -49 c-14
-27 -32 -71 -41 -97 -9 -26 -21 -59 -27 -73 -6 -14 -11 -28 -12 -32 -2 -5 -4
-10 -5 -13 -1 -3 -3 -8 -5 -12 -1 -5 -5 -15 -8 -23 -4 -8 -13 -58 -22 -110
-18 -114 -19 -276 -3 -422 12 -119 6 -150 -35 -169 -16 -7 -31 -7 -52 2 -17 7
-32 13 -35 14 -17 4 -85 45 -148 88 -83 57 -228 205 -279 284 -31 49 -115 208
-119 226 -1 4 -3 10 -4 15 -1 4 -3 12 -5 17 -1 6 -3 13 -5 18 -1 4 -3 10 -5
15 -1 4 -7 20 -13 35 -42 101 -88 466 -103 817 -5 140 -12 256 -14 258 -1 2
-8 -20 -15 -47 -7 -28 -16 -54 -21 -57 -5 -3 -7 -10 -3 -15 3 -5 1 -15 -4 -22
-6 -7 -10 -14 -10 -17 -1 -5 -3 -11 -51 -135 -90 -235 -213 -311 -337 -210
-49 40 -131 194 -125 233 1 8 -3 20 -10 28 -6 8 -9 17 -6 21 4 3 2 12 -4 19
-6 8 -9 21 -5 29 3 8 1 15 -4 15 -11 0 -14 -11 -40 -145 -29 -149 -99 -438
-110 -449 -5 -5 -6 -15 -3 -22 3 -8 0 -21 -7 -29 -7 -8 -9 -15 -5 -15 4 0 2
-6 -4 -14 -6 -8 -11 -18 -10 -22 1 -5 -1 -16 -4 -24 -4 -8 -36 -132 -72 -275
-36 -143 -67 -264 -69 -270 -2 -5 -3 -13 -2 -16 0 -3 -4 -12 -10 -20 -7 -8
-15 -30 -19 -49 -4 -19 -19 -80 -35 -135 -15 -55 -40 -147 -56 -205 -41 -150
-98 -207 -150 -149 -17 19 -18 22 -2 50 9 16 27 64 39 106 11 43 25 83 30 89
5 6 6 14 2 17 -3 4 -1 12 5 20 6 7 15 31 20 52 6 22 26 103 47 180 20 77 50
194 66 260 17 66 33 127 36 135 4 8 7 17 7 20 1 3 5 11 10 18 4 7 5 16 2 19
-3 3 -2 11 3 17 5 6 41 142 81 301 39 160 74 297 77 305 4 8 5 21 4 28 -1 8 3
19 9 27 6 7 10 17 9 21 -1 5 1 16 4 24 9 21 51 273 82 485 27 186 41 227 82
233 10 2 27 -6 38 -18 16 -17 19 -41 21 -173 5 -239 34 -433 81 -538 28 -65
82 -123 109 -117 16 3 104 106 101 118 -1 3 6 19 15 35 25 47 93 266 123 395
15 63 31 119 35 124 5 5 6 15 3 22 -3 8 0 21 7 29 7 8 9 15 5 15 -4 0 -2 6 4
14 6 8 11 18 10 22 -1 5 3 22 9 37 7 16 12 32 12 36 0 17 43 51 65 51 54 0 55
-11 55 -431 0 -212 3 -389 7 -392 3 -4 5 -37 4 -73 -1 -39 2 -71 9 -79 7 -8
10 -34 8 -60 -2 -25 1 -45 5 -45 5 0 7 -17 6 -38 -2 -21 0 -42 3 -47 3 -6 8
-39 12 -75 11 -99 54 -286 87 -370 16 -42 51 -111 79 -153 27 -42 50 -81 50
-86 0 -5 11 -16 25 -25 14 -9 25 -22 25 -28 0 -14 90 -108 103 -108 5 0 18
-11 29 -25 10 -13 22 -24 26 -23 4 1 29 -12 56 -30 28 -18 53 -32 56 -32 4 0
4 85 2 189 -5 194 8 320 45 449 28 99 90 237 142 315 33 50 55 95 61 126 29
152 108 289 240 415 162 155 371 264 625 326 50 12 100 26 112 32 12 6 29 8
37 5 8 -3 18 -2 22 4 3 6 20 9 38 8 17 -2 38 1 45 6 23 13 281 11 323 -3 20
-7 43 -23 51 -36 14 -21 14 -26 -2 -52 -14 -23 -34 -34 -92 -53 -41 -13 -85
-28 -99 -34 -14 -6 -31 -9 -37 -8 -7 1 -13 -3 -13 -9 0 -6 -5 -8 -10 -5 -6 4
-17 1 -25 -5 -8 -7 -15 -9 -15 -5 0 4 -6 3 -12 -3 -7 -6 -67 -31 -133 -57
-167 -64 -214 -84 -260 -110 -22 -12 -89 -48 -150 -80 -162 -84 -354 -225
-481 -351 -47 -47 -54 -60 -54 -93 0 -56 35 -102 89 -118 41 -12 45 -11 85 16
80 55 221 121 281 132 33 6 94 9 137 7 64 -3 81 -7 102 -27 32 -30 33 -51 4
-78 -30 -27 -68 -46 -153 -73 -38 -12 -76 -27 -82 -33 -7 -5 -13 -6 -13 -2 0
4 -6 2 -13 -4 -8 -6 -17 -8 -20 -4 -4 3 -13 0 -22 -7 -8 -7 -15 -9 -15 -5 0 4
-6 3 -12 -2 -15 -12 -90 -30 -163 -39 -47 -5 -55 -11 -142 -101 -51 -53 -90
-100 -87 -104 3 -5 1 -9 -4 -9 -15 0 -77 -126 -97 -194 -37 -128 6 -293 97
-371 23 -19 47 -35 54 -35 7 0 14 -3 16 -7 13 -30 158 -80 268 -94 128 -15
377 17 488 63 15 6 29 12 32 12 12 3 219 107 260 132 66 39 143 100 189 150
39 42 52 74 31 74 -6 0 -15 11 -20 25 -5 14 -18 29 -29 33 -10 4 -31 22 -46
40 -15 17 -31 32 -36 32 -5 0 -36 20 -68 44 -72 52 -216 128 -291 152 -30 9
-60 21 -67 26 -7 6 -17 7 -22 4 -5 -4 -12 -2 -16 4 -4 6 -10 8 -15 5 -15 -9
-42 42 -35 65 10 30 48 42 98 30 58 -13 403 -13 578 1 l145 12 14 96 c9 60 16
236 19 468 6 365 6 373 28 394 15 16 28 20 47 15 50 -12 50 -18 48 -491 -1
-242 2 -445 6 -451 8 -11 246 14 270 29 7 5 22 7 35 6 12 -1 29 0 37 3 8 3 92
18 185 32 94 15 235 42 314 60 l145 32 0 551 1 551 -45 7 c-25 3 -243 37 -485
75 -539 85 -661 100 -792 100 -76 0 -114 -5 -150 -19 -53 -20 -87 -15 -97 16
-3 11 7 59 24 108 17 49 55 184 85 299 193 742 208 786 262 786 43 0 161 -162
264 -363 l76 -148 45 94 c25 52 91 170 146 263 116 197 157 276 263 514 82
183 113 226 152 214 12 -3 27 -11 34 -16z"/>
<path d="M6942 7970 c-117 -267 -186 -404 -303 -596 -40 -66 -108 -193 -152
-284 -43 -91 -86 -173 -94 -182 -19 -21 -66 -24 -81 -5 -5 6 -13 35 -16 62
-13 90 -239 495 -258 462 -7 -13 -81 -288 -183 -677 -30 -113 -57 -215 -61
-227 -6 -23 -6 -23 112 -23 140 0 268 -17 824 -104 458 -72 674 -102 826 -112
l101 -7 12 119 c7 66 25 270 41 454 16 184 32 357 35 384 l6 48 -49 -58 c-106
-125 -337 -324 -377 -324 -65 0 -110 114 -195 496 -28 126 -77 317 -109 424
l-59 195 -20 -45z m1 -572 c35 -35 44 -56 83 -191 24 -84 56 -182 70 -219 26
-64 26 -68 10 -93 -9 -14 -23 -25 -30 -25 -17 0 -135 -161 -146 -199 -5 -19
-4 -35 4 -48 24 -35 25 -52 5 -77 -25 -32 -59 -33 -86 -3 -11 12 -58 78 -104
146 -82 122 -125 173 -188 219 -52 39 -31 102 33 102 29 0 33 4 55 62 47 121
159 335 187 357 34 27 57 21 107 -31z"/>
<path d="M6842 7424 c-24 -17 -127 -216 -182 -350 -31 -77 -34 -80 -61 -76
-59 9 -82 -52 -32 -85 52 -35 116 -109 206 -243 82 -121 95 -135 121 -135 18
0 34 8 42 20 12 18 11 26 -5 56 -15 28 -17 40 -7 66 18 50 129 202 148 202 10
1 22 11 29 22 9 18 6 34 -15 88 -15 36 -46 134 -70 216 -36 125 -49 156 -77
186 -42 45 -68 54 -97 33z m92 -298 c55 -188 58 -164 -37 -299 l-55 -79 -33
49 c-17 26 -47 67 -65 89 l-34 42 26 63 c35 90 136 299 144 299 4 0 28 -74 54
-164z"/>
<path d="M6822 7163 c-28 -60 -62 -136 -76 -171 l-25 -62 55 -73 c30 -39 54
-75 54 -79 0 -5 4 -8 9 -8 10 0 131 175 131 190 0 16 -82 295 -89 303 -4 4
-30 -41 -59 -100z"/>
<path d="M5500 5950 c-104 -19 -168 -36 -209 -52 -14 -6 -29 -12 -33 -13 -5
-2 -10 -4 -13 -5 -3 -1 -8 -3 -12 -4 -5 -1 -25 -10 -47 -19 -21 -9 -43 -17
-49 -17 -5 0 -49 -21 -98 -46 -155 -82 -320 -233 -388 -355 l-24 -41 74 62
c77 65 222 170 234 170 4 0 50 26 104 59 115 70 173 99 266 136 39 15 102 42
140 60 39 18 99 43 135 55 36 12 67 24 69 26 9 8 -57 1 -149 -16z"/>
<path d="M3531 5894 c0 -11 3 -14 6 -6 3 7 2 16 -1 19 -3 4 -6 -2 -5 -13z"/>
<path d="M5987 4814 c-4 -4 -34 -6 -68 -5 -35 1 -66 -2 -74 -9 -10 -8 -47 -11
-110 -8 -52 1 -95 1 -95 -2 0 -3 21 -16 46 -30 57 -30 150 -99 226 -169 57
-52 57 -52 70 -29 7 13 13 25 13 28 1 3 7 17 13 32 17 40 40 129 44 163 3 27
0 30 -27 33 -17 2 -34 0 -38 -4z"/>
<path d="M6130 4657 c-7 -28 -27 -88 -46 -133 l-34 -80 86 -130 c60 -90 85
-120 81 -99 -3 17 -11 77 -17 135 -6 58 -14 112 -17 120 -3 8 -5 28 -4 43 2
15 -3 34 -9 42 -6 8 -11 24 -9 37 1 13 -1 31 -6 41 -4 9 -4 28 -1 41 3 14 2
27 -3 30 -5 3 -14 -18 -21 -47z"/>
</g>
</svg>
